<svg xmlns="http://www.w3.org/2000/svg" xmlns:xlink="http://www.w3.org/1999/xlink" viewBox="0,0,256,256" width="100px" height="100px" fill-rule="nonzero"><g fill="none" fill-rule="nonzero" stroke="none" stroke-width="1" stroke-linecap="butt" stroke-linejoin="miter" stroke-miterlimit="10" stroke-dasharray="" stroke-dashoffset="0" font-family="none" font-weight="none" font-size="none" text-anchor="none" style="mix-blend-mode: normal"><g transform="scale(2.56,2.56)"><path d="M50,15c-19.32997,0 -35,15.67003 -35,35c0,19.32997 15.67003,35 35,35c19.32997,0 35,-15.67003 35,-35c0,-19.32997 -15.67003,-35 -35,-35z" fill="#45c136"></path><path d="M47.5,61.5c-0.481,0 -0.964,-0.173 -1.346,-0.521l-12,-12c-0.817,-0.742 -0.877,-2.008 -0.134,-2.825c0.743,-0.815 2.007,-0.878 2.825,-0.134l10.628,10.753l17.653,-17.728c0.802,-0.758 2.067,-0.724 2.827,0.081c0.759,0.803 0.723,2.068 -0.081,2.827l-19,19c-0.384,0.364 -0.878,0.547 -1.372,0.547z" fill="#fefdef"></path><path d="M47.5,62c-0.624,0 -1.222,-0.231 -1.683,-0.651l-12.016,-12.016c-0.477,-0.432 -0.767,-1.047 -0.798,-1.714c-0.031,-0.667 0.198,-1.307 0.647,-1.801c0.93,-1.019 2.514,-1.092 3.531,-0.167l10.293,10.413l17.298,-17.371c0.498,-0.469 1.148,-0.696 1.798,-0.693c0.668,0.019 1.288,0.297 1.747,0.783c0.459,0.485 0.701,1.12 0.682,1.788c-0.019,0.667 -0.297,1.288 -0.783,1.747l-18.989,18.99c-0.477,0.45 -1.086,0.692 -1.727,0.692zM35.509,45.999c-0.409,0 -0.82,0.165 -1.119,0.493c-0.269,0.296 -0.407,0.68 -0.388,1.08c0.019,0.4 0.192,0.769 0.488,1.038l12.018,12.017c0.526,0.477 1.469,0.484 2.022,-0.036l18.989,-18.99c0.302,-0.285 0.469,-0.657 0.48,-1.058c0.011,-0.4 -0.134,-0.781 -0.409,-1.072c-0.275,-0.292 -0.648,-0.458 -1.049,-0.47c-0.392,-0.019 -0.78,0.133 -1.071,0.409l-17.642,17.716c-0.094,0.094 -0.222,0.147 -0.354,0.147h-0.001c-0.133,0 -0.261,-0.054 -0.354,-0.148l-10.629,-10.753c-0.275,-0.249 -0.627,-0.373 -0.981,-0.373z" fill="#1f212b"></path><path d="M50,86c-19.851,0 -36,-16.149 -36,-36c0,-19.851 16.149,-36 36,-36c19.851,0 36,16.149 36,36c0,19.851 -16.149,36 -36,36zM50,16c-18.748,0 -34,15.252 -34,34c0,18.748 15.252,34 34,34c18.748,0 34,-15.252 34,-34c0,-18.748 -15.252,-34 -34,-34z" fill="#1f212b"></path><path d="M65.5,24.227c-0.087,0 -0.175,-0.022 -0.255,-0.07c-0.638,-0.377 -1.299,-0.735 -1.967,-1.065c-0.247,-0.123 -0.349,-0.422 -0.227,-0.67c0.122,-0.249 0.424,-0.347 0.67,-0.227c0.689,0.341 1.374,0.711 2.033,1.102c0.237,0.141 0.316,0.447 0.176,0.685c-0.093,0.157 -0.259,0.245 -0.43,0.245zM68.5,26.25c-0.106,0 -0.213,-0.034 -0.304,-0.103c-0.322,-0.247 -0.65,-0.486 -0.983,-0.72c-0.226,-0.159 -0.281,-0.47 -0.122,-0.696c0.158,-0.228 0.469,-0.28 0.696,-0.123c0.345,0.241 0.683,0.49 1.017,0.745c0.22,0.167 0.261,0.481 0.094,0.701c-0.099,0.128 -0.248,0.196 -0.398,0.196z" fill="#1f212b"></path><path d="M50,81c-17.094,0 -31,-13.907 -31,-31c0,-17.093 13.906,-31 31,-31c3.668,0 7.259,0.635 10.672,1.886c0.26,0.095 0.393,0.382 0.298,0.642c-0.095,0.26 -0.384,0.393 -0.642,0.297c-3.303,-1.211 -6.777,-1.825 -10.328,-1.825c-16.542,0 -30,13.458 -30,30c0,16.542 13.458,30 30,30c16.542,0 30,-13.458 30,-30c0,-8.439 -3.585,-16.535 -9.836,-22.213c-0.205,-0.186 -0.22,-0.502 -0.034,-0.707c0.187,-0.204 0.502,-0.219 0.706,-0.034c6.46,5.868 10.164,14.234 10.164,22.954c0,17.093 -13.906,31 -31,31z" fill="#1f212b"></path></g></g></svg>