<svg xmlns="http://www.w3.org/2000/svg" xmlns:xlink="http://www.w3.org/1999/xlink" width="500" zoomAndPan="magnify" viewBox="0 0 375 374.999991" height="500" preserveAspectRatio="xMidYMid meet" version="1.0"><defs><g/><clipPath id="5494c07f1a"><path d="M 100.238281 140.359375 L 172.238281 140.359375 L 172.238281 234.859375 L 100.238281 234.859375 Z M 100.238281 140.359375 " clip-rule="nonzero"/></clipPath><clipPath id="a07dba78d7"><path d="M 133.550781 218.484375 L 138.367188 218.484375 L 138.367188 234.988281 L 133.550781 234.988281 Z M 133.550781 218.484375 " clip-rule="nonzero"/></clipPath><clipPath id="f22b866af5"><path d="M 134.398438 233.175781 C 133.949219 219.226562 134.550781 218.851562 135.148438 218.625 C 135.601562 218.476562 136.125 218.476562 136.574219 218.699219 C 137.175781 219.074219 138 220.351562 138 221.023438 C 137.925781 221.699219 137.324219 222.523438 136.800781 222.824219 C 136.199219 223.050781 135.226562 223.050781 134.699219 222.824219 C 134.25 222.601562 133.875 222.226562 133.726562 221.773438 C 133.5 221.175781 133.5 220.199219 133.800781 219.675781 C 134.101562 219.148438 135 218.625 135.601562 218.550781 C 136.199219 218.550781 137.023438 218.773438 137.550781 219.449219 C 138.375 220.726562 138.226562 224.550781 138.300781 227.023438 C 138.300781 229.425781 138.601562 232.800781 137.773438 234 C 137.398438 234.675781 136.574219 235.050781 135.976562 234.976562 C 135.375 234.824219 134.398438 233.175781 134.398438 233.175781 " clip-rule="nonzero"/></clipPath><clipPath id="43763ca2c0"><path d="M 134.101562 197.882812 L 139.511719 197.882812 L 139.511719 218.484375 L 134.101562 218.484375 Z M 134.101562 197.882812 " clip-rule="nonzero"/></clipPath><clipPath id="a6a2da5a90"><path d="M 135.148438 216.675781 C 134.476562 198.675781 135 198.226562 135.675781 198 C 136.273438 197.773438 137.324219 197.925781 137.851562 198.300781 C 138.375 198.675781 138.824219 199.648438 138.824219 200.25 C 138.824219 200.925781 138.300781 201.824219 137.699219 202.199219 C 137.175781 202.574219 136.125 202.648438 135.523438 202.351562 C 134.925781 202.125 134.25 201.300781 134.175781 200.625 C 134.023438 200.023438 134.324219 198.976562 134.773438 198.523438 C 135.375 198.074219 136.949219 197.925781 137.625 198.148438 C 138.074219 198.300781 138.375 198.75 138.601562 199.273438 C 139.050781 200.175781 139.199219 201.523438 139.273438 203.324219 C 139.425781 206.550781 139.875 215.023438 138.675781 217.125 C 138.226562 218.023438 137.324219 218.550781 136.726562 218.476562 C 136.125 218.398438 135.148438 216.675781 135.148438 216.675781 " clip-rule="nonzero"/></clipPath><clipPath id="c02879b9c4"><path d="M 118.734375 135.34375 L 121.90625 135.34375 L 121.90625 138.0625 L 118.734375 138.0625 Z M 118.734375 135.34375 " clip-rule="nonzero"/></clipPath><clipPath id="9292a4201a"><path d="M 121.875 136.273438 C 120.449219 138.601562 119.175781 138.148438 118.875 137.699219 C 118.574219 137.175781 118.800781 135.824219 119.25 135.449219 C 119.699219 135.148438 121.5 135.601562 121.5 135.601562 " clip-rule="nonzero"/></clipPath><clipPath id="3c9e1329f9"><path d="M 75.984375 161.894531 L 79.15625 161.894531 L 79.15625 164.613281 L 75.984375 164.613281 Z M 75.984375 161.894531 " clip-rule="nonzero"/></clipPath><clipPath id="3c041a88c6"><path d="M 79.125 162.824219 C 77.699219 165.148438 76.425781 164.699219 76.125 164.25 C 75.824219 163.726562 76.050781 162.375 76.5 162 C 76.949219 161.699219 78.75 162.148438 78.75 162.148438 " clip-rule="nonzero"/></clipPath><clipPath id="f46368818c"><path d="M 133.617188 175.648438 L 138.945312 175.648438 L 138.945312 200.664062 L 133.617188 200.664062 Z M 133.617188 175.648438 " clip-rule="nonzero"/></clipPath><clipPath id="4092636ffe"><path d="M 134.851562 198.375 C 134.101562 176.398438 134.699219 175.949219 135.375 175.726562 C 135.976562 175.574219 137.023438 175.726562 137.550781 176.175781 C 138.074219 176.625 138.523438 177.601562 138.449219 178.273438 C 138.375 178.949219 137.851562 179.851562 137.25 180.148438 C 136.648438 180.449219 135.601562 180.523438 135 180.226562 C 134.398438 179.925781 133.648438 179.023438 133.648438 178.351562 C 133.648438 177.601562 134.398438 176.175781 135.074219 175.800781 C 135.675781 175.5 136.800781 175.726562 137.324219 176.023438 C 137.851562 176.25 138.074219 176.699219 138.300781 177.226562 C 138.675781 178.125 138.675781 179.324219 138.75 181.125 C 138.976562 184.875 139.125 196.125 138.449219 198.675781 C 138.300781 199.5 138.074219 199.875 137.699219 200.175781 C 137.324219 200.476562 136.574219 200.699219 136.125 200.625 C 135.75 200.550781 135.300781 200.324219 135.074219 199.949219 C 134.851562 199.574219 134.851562 198.375 134.851562 198.375 " clip-rule="nonzero"/></clipPath><clipPath id="9f4f7f9cd8"><path d="M 132.464844 155.597656 L 137.367188 155.597656 L 137.367188 176.128906 L 132.464844 176.128906 Z M 132.464844 155.597656 " clip-rule="nonzero"/></clipPath><clipPath id="2432925207"><path d="M 133.199219 174.300781 C 132.898438 156.375 133.875 155.773438 134.550781 155.625 C 135.226562 155.550781 136.125 156.148438 136.5 156.601562 C 136.875 156.898438 137.023438 157.5 137.023438 157.949219 C 136.949219 158.550781 136.5 159.523438 135.976562 159.824219 C 135.449219 160.199219 134.398438 160.273438 133.875 160.050781 C 133.351562 159.898438 132.976562 159.601562 132.75 159.148438 C 132.449219 158.625 132.375 157.574219 132.601562 156.976562 C 132.898438 156.375 133.726562 155.699219 134.324219 155.699219 C 135.074219 155.625 136.199219 156.074219 136.800781 156.976562 C 137.773438 158.625 137.175781 163.199219 137.175781 166.273438 C 137.101562 169.273438 137.476562 173.699219 136.574219 175.125 C 136.125 175.800781 135.300781 176.175781 134.773438 176.101562 C 134.175781 175.949219 133.199219 174.300781 133.199219 174.300781 " clip-rule="nonzero"/></clipPath><clipPath id="c6f0c80992"><path d="M 133.742188 134.148438 L 138.53125 134.148438 L 138.53125 154.679688 L 133.742188 154.679688 Z M 133.742188 134.148438 " clip-rule="nonzero"/></clipPath><clipPath id="657acf12c3"><path d="M 134.25 152.851562 C 134.324219 134.699219 135.375 134.25 136.125 134.25 C 136.726562 134.25 137.625 134.851562 137.925781 135.375 C 138.226562 135.898438 138.226562 136.949219 137.925781 137.550781 C 137.699219 138.074219 136.800781 138.675781 136.199219 138.75 C 135.601562 138.824219 134.550781 138.523438 134.175781 138 C 133.726562 137.476562 133.648438 135.898438 133.949219 135.226562 C 134.25 134.699219 135.226562 134.25 135.824219 134.175781 C 136.5 134.175781 137.324219 134.550781 137.773438 135.148438 C 138.449219 136.199219 138.226562 138.601562 138.300781 140.925781 C 138.375 144.226562 138.898438 151.273438 137.851562 153.300781 C 137.324219 154.125 136.425781 154.726562 135.824219 154.648438 C 135.226562 154.574219 134.25 152.851562 134.25 152.851562 " clip-rule="nonzero"/></clipPath></defs><rect x="-37.5" width="450" fill="#ffffff" y="-37.499999" height="449.999989" fill-opacity="1"/><rect x="-37.5" width="450" fill="#000000" y="-37.499999" height="449.999989" fill-opacity="1"/><g clip-path="url(#5494c07f1a)"><path fill="#9966ff" d="M 134.90625 170.164062 L 129.167969 175.898438 L 162.011719 208.742188 L 136.0625 234.636719 L 108.132812 206.707031 L 112.578125 202.261719 L 136.0625 225.746094 L 153.007812 208.800781 L 147.75 203.542969 L 137.628906 213.664062 L 137.558594 213.59375 L 137.5 213.65625 L 100.28125 176.4375 L 104.726562 171.992188 L 137.566406 204.832031 L 143.304688 199.097656 L 110.460938 166.257812 L 136.410156 140.359375 L 164.339844 168.289062 L 159.894531 172.734375 L 136.410156 149.25 L 119.464844 166.195312 L 124.726562 171.453125 L 134.847656 161.332031 L 134.914062 161.402344 L 134.976562 161.339844 L 172.195312 198.558594 L 167.75 203.003906 Z M 134.90625 170.164062 " fill-opacity="1" fill-rule="nonzero"/></g><g fill="#ffffff" fill-opacity="1"><g transform="translate(100.240104, 265.774142)"><g><path d="M 13.765625 -16.046875 L 9.296875 -16.046875 L 9.296875 -17.765625 C 9.296875 -17.953125 9.234375 -18.109375 9.109375 -18.234375 C 8.984375 -18.367188 8.832031 -18.4375 8.65625 -18.4375 L 6.796875 -18.4375 C 6.617188 -18.4375 6.46875 -18.367188 6.34375 -18.234375 C 6.21875 -18.109375 6.15625 -17.953125 6.15625 -17.765625 L 6.15625 -13.90625 C 6.15625 -13.71875 6.21875 -13.554688 6.34375 -13.421875 C 6.46875 -13.296875 6.617188 -13.234375 6.796875 -13.234375 L 9.828125 -13.234375 C 12.609375 -13.179688 14 -11.695312 14 -8.78125 L 14 -4.109375 C 14 -1.140625 12.609375 0.34375 9.828125 0.34375 L 5.859375 0.34375 C 3.078125 0.34375 1.6875 -1.140625 1.6875 -4.109375 L 1.6875 -6.359375 L 6.15625 -6.359375 L 6.15625 -3.9375 C 6.15625 -3.757812 6.21875 -3.601562 6.34375 -3.46875 C 6.46875 -3.332031 6.617188 -3.265625 6.796875 -3.265625 L 8.890625 -3.265625 C 9.066406 -3.265625 9.21875 -3.332031 9.34375 -3.46875 C 9.46875 -3.601562 9.53125 -3.757812 9.53125 -3.9375 L 9.53125 -8.21875 C 9.53125 -8.394531 9.46875 -8.550781 9.34375 -8.6875 C 9.21875 -8.820312 9.066406 -8.890625 8.890625 -8.890625 L 5.859375 -8.890625 C 3.078125 -8.890625 1.6875 -10.367188 1.6875 -13.328125 L 1.6875 -17.671875 C 1.6875 -20.628906 3.078125 -22.109375 5.859375 -22.109375 L 9.59375 -22.109375 C 12.375 -22.109375 13.765625 -20.628906 13.765625 -17.671875 Z M 13.765625 -16.046875 "/></g></g></g><g fill="#ffffff" fill-opacity="1"><g transform="translate(115.64931, 265.774142)"><g><path d="M 9.484375 -16.765625 C 12.273438 -16.765625 13.671875 -15.28125 13.671875 -12.3125 L 13.671875 -7 L 6.03125 -7 L 6.03125 -3.5625 C 6.03125 -3.382812 6.085938 -3.226562 6.203125 -3.09375 C 6.328125 -2.957031 6.476562 -2.890625 6.65625 -2.890625 L 8.515625 -2.890625 C 8.691406 -2.890625 8.84375 -2.957031 8.96875 -3.09375 C 9.09375 -3.226562 9.15625 -3.382812 9.15625 -3.5625 L 9.15625 -5.390625 L 13.671875 -5.390625 L 13.671875 -4.109375 C 13.671875 -1.140625 12.273438 0.34375 9.484375 0.34375 L 5.6875 0.34375 C 2.90625 0.34375 1.515625 -1.140625 1.515625 -4.109375 L 1.515625 -12.3125 C 1.515625 -15.28125 2.90625 -16.765625 5.6875 -16.765625 Z M 6.03125 -9.96875 L 9.15625 -9.96875 L 9.15625 -12.984375 C 9.15625 -13.171875 9.09375 -13.332031 8.96875 -13.46875 C 8.84375 -13.601562 8.691406 -13.671875 8.515625 -13.671875 L 6.65625 -13.671875 C 6.476562 -13.671875 6.328125 -13.601562 6.203125 -13.46875 C 6.085938 -13.332031 6.03125 -13.171875 6.03125 -12.984375 Z M 6.03125 -9.96875 "/></g></g></g><g fill="#ffffff" fill-opacity="1"><g transform="translate(130.284689, 265.774142)"><g><path d="M 6.03125 0 L 1.515625 0 L 1.515625 -16.421875 L 5.625 -16.421875 L 5.625 -15.578125 C 6.3125 -16.367188 7.363281 -16.765625 8.78125 -16.765625 L 9.484375 -16.765625 C 12.273438 -16.765625 13.671875 -15.28125 13.671875 -12.3125 L 13.671875 0 L 9.15625 0 L 9.15625 -12.859375 C 9.15625 -13.035156 9.09375 -13.191406 8.96875 -13.328125 C 8.84375 -13.460938 8.691406 -13.53125 8.515625 -13.53125 L 6.65625 -13.53125 C 6.476562 -13.53125 6.328125 -13.460938 6.203125 -13.328125 C 6.085938 -13.191406 6.03125 -13.035156 6.03125 -12.859375 Z M 6.03125 0 "/></g></g></g><g fill="#ffffff" fill-opacity="1"><g transform="translate(145.492032, 265.774142)"><g><path d="M 7.5 -2.59375 L 8.859375 -2.59375 L 8.859375 0.34375 L 5.6875 0.34375 C 2.90625 0.34375 1.515625 -1.140625 1.515625 -4.109375 L 1.515625 -19.984375 L 6.03125 -19.984375 L 6.03125 -16.421875 L 8.859375 -16.421875 L 8.859375 -13.15625 L 6.03125 -13.15625 L 6.03125 -4.203125 C 6.03125 -3.578125 6.148438 -3.148438 6.390625 -2.921875 C 6.640625 -2.703125 7.007812 -2.59375 7.5 -2.59375 Z M 7.5 -2.59375 "/></g></g></g><g fill="#ffffff" fill-opacity="1"><g transform="translate(155.181664, 265.774142)"><g><path d="M 6.109375 -18.46875 C 5.628906 -18 5.050781 -17.765625 4.375 -17.765625 C 3.695312 -17.765625 3.113281 -18.003906 2.625 -18.484375 C 2.132812 -18.972656 1.890625 -19.554688 1.890625 -20.234375 C 1.890625 -20.921875 2.132812 -21.503906 2.625 -21.984375 C 3.113281 -22.472656 3.695312 -22.71875 4.375 -22.71875 C 5.050781 -22.71875 5.628906 -22.472656 6.109375 -21.984375 C 6.585938 -21.503906 6.828125 -20.914062 6.828125 -20.21875 C 6.828125 -19.53125 6.585938 -18.945312 6.109375 -18.46875 Z M 2.125 0 L 2.125 -16.421875 L 6.625 -16.421875 L 6.625 0 Z M 2.125 0 "/></g></g></g><g fill="#ffffff" fill-opacity="1"><g transform="translate(163.458225, 265.774142)"><g><path d="M 13.671875 -12.3125 L 13.671875 -4.109375 C 13.671875 -1.140625 12.273438 0.34375 9.484375 0.34375 L 5.6875 0.34375 C 2.90625 0.34375 1.515625 -1.140625 1.515625 -4.109375 L 1.515625 -12.3125 C 1.515625 -15.28125 2.90625 -16.765625 5.6875 -16.765625 L 9.484375 -16.765625 C 12.273438 -16.765625 13.671875 -15.28125 13.671875 -12.3125 Z M 9.15625 -3.15625 L 9.15625 -13.296875 C 9.15625 -13.472656 9.09375 -13.628906 8.96875 -13.765625 C 8.84375 -13.898438 8.691406 -13.96875 8.515625 -13.96875 L 6.65625 -13.96875 C 6.476562 -13.96875 6.328125 -13.898438 6.203125 -13.765625 C 6.085938 -13.628906 6.03125 -13.472656 6.03125 -13.296875 L 6.03125 -3.15625 C 6.03125 -2.976562 6.085938 -2.820312 6.203125 -2.6875 C 6.328125 -2.550781 6.476562 -2.484375 6.65625 -2.484375 L 8.515625 -2.484375 C 8.691406 -2.484375 8.84375 -2.550781 8.96875 -2.6875 C 9.09375 -2.820312 9.15625 -2.976562 9.15625 -3.15625 Z M 9.15625 -3.15625 "/></g></g></g><g clip-path="url(#a07dba78d7)"><g clip-path="url(#f22b866af5)"><path fill="#000000" d="M 130.574219 215.550781 L 141.300781 215.550781 L 141.300781 237.964844 L 130.574219 237.964844 Z M 130.574219 215.550781 " fill-opacity="1" fill-rule="nonzero"/></g></g><g clip-path="url(#43763ca2c0)"><g clip-path="url(#a6a2da5a90)"><path fill="#000000" d="M 131.175781 195 L 142.351562 195 L 142.351562 221.539062 L 131.175781 221.539062 Z M 131.175781 195 " fill-opacity="1" fill-rule="nonzero"/></g></g><g clip-path="url(#c02879b9c4)"><g clip-path="url(#9292a4201a)"><path fill="#000000" d="M 115.875 132.449219 L 124.9375 132.449219 L 124.9375 141.375 L 115.875 141.375 Z M 115.875 132.449219 " fill-opacity="1" fill-rule="nonzero"/></g></g><g clip-path="url(#3c9e1329f9)"><g clip-path="url(#3c041a88c6)"><path fill="#000000" d="M 73.125 159 L 82.1875 159 L 82.1875 167.925781 L 73.125 167.925781 Z M 73.125 159 " fill-opacity="1" fill-rule="nonzero"/></g></g><g clip-path="url(#f46368818c)"><g clip-path="url(#4092636ffe)"><path fill="#000000" d="M 130.648438 172.726562 L 141.824219 172.726562 L 141.824219 203.628906 L 130.648438 203.628906 Z M 130.648438 172.726562 " fill-opacity="1" fill-rule="nonzero"/></g></g><g clip-path="url(#9f4f7f9cd8)"><g clip-path="url(#2432925207)"><path fill="#000000" d="M 129.449219 152.625 L 140.175781 152.625 L 140.175781 179.101562 L 129.449219 179.101562 Z M 129.449219 152.625 " fill-opacity="1" fill-rule="nonzero"/></g></g><g clip-path="url(#c6f0c80992)"><g clip-path="url(#657acf12c3)"><path fill="#000000" d="M 130.726562 131.175781 L 141.300781 131.175781 L 141.300781 157.652344 L 130.726562 157.652344 Z M 130.726562 131.175781 " fill-opacity="1" fill-rule="nonzero"/></g></g></svg>