<svg version="1.1" id="Layer_1" xmlns="http://www.w3.org/2000/svg" xmlns:xlink="http://www.w3.org/1999/xlink" x="0px" y="0px"
	 width="1024px" height="1024px" viewBox="0 0 413 254" enable-background="new 0 0 413 254" xml:space="preserve">
<path fill="#000000" opacity="1.000000" stroke="none" 
	d="
M197.000000,255.000000 
	C131.688568,255.000000 66.377151,255.000000 1.032863,255.000000 
	C1.032863,170.383652 1.032863,85.767273 1.032863,1.075451 
	C138.570160,1.075451 276.140381,1.075451 413.855286,1.075451 
	C413.855286,85.666512 413.855286,170.333221 413.855286,255.000000 
	C351.228912,255.000000 288.583130,255.000000 225.467377,254.602478 
	C223.664139,251.799881 222.330841,249.394821 221.285736,246.811584 
	C223.981018,243.962509 226.312408,241.218475 228.808655,238.633652 
	C238.341080,228.762939 247.708908,218.715088 257.635498,209.255219 
	C260.333740,206.683868 262.590698,199.641586 267.890686,205.181412 
	C269.585297,201.235016 270.922302,197.499054 272.788055,194.049026 
	C273.670593,192.417130 275.565155,191.332550 277.377747,189.953964 
	C278.547302,188.474350 279.806519,187.114105 280.045837,185.593369 
	C280.759430,181.058411 282.526001,179.064545 287.709442,178.708237 
	C292.673920,178.366959 297.524139,175.744171 302.297607,173.810577 
	C303.161804,173.460480 303.694519,171.639709 303.880402,170.421616 
	C304.152039,168.641373 303.971771,166.792130 303.985107,164.578308 
	C303.877563,156.196533 296.222443,153.366104 292.484985,147.851715 
	C289.764771,143.838242 284.564697,141.601944 280.979095,138.058395 
	C273.745789,130.909912 266.862396,123.407509 259.827362,116.058136 
	C257.563568,113.693199 255.276642,111.350395 253.000580,108.748367 
	C253.000870,108.499268 253.001556,108.001068 253.064606,107.966743 
	C253.127655,107.932419 253.140793,107.773216 253.140793,107.773216 
	C253.140793,107.773216 252.998871,107.998474 252.746704,108.000031 
	C252.326447,108.003128 252.158340,108.004654 251.801086,107.865646 
	C251.372177,107.518768 251.165405,107.283455 251.191559,106.735123 
	C253.081055,105.538475 254.770615,104.625854 257.436127,103.186066 
	C255.222641,101.077042 253.676743,98.652405 251.521194,97.834503 
	C249.603043,97.106697 247.009598,98.158638 243.776505,98.533928 
	C249.887619,88.809853 254.933258,88.437378 261.202911,95.978844 
	C264.209412,99.595268 268.103638,99.597542 271.244354,95.986473 
	C271.490356,95.988342 271.982361,95.991562 272.321289,95.922974 
	C277.431427,93.587059 280.110535,87.595970 286.465027,88.082817 
	C286.725403,88.102760 287.134949,87.390495 287.323151,86.953911 
	C289.925171,80.917664 286.686554,76.091682 279.991302,75.755859 
	C279.989136,75.510185 279.990082,75.018822 279.971863,74.655716 
	C276.018097,68.738457 272.082520,63.184311 268.785950,58.531952 
	C269.281616,56.250389 270.436066,54.172745 269.872772,52.799953 
	C268.936890,50.519230 266.895386,50.432541 264.097504,50.873257 
	C261.630310,51.261887 257.536621,49.615627 256.273712,47.566143 
	C253.925568,43.755459 250.972687,42.377926 246.996201,42.002922 
	C247.000000,42.000000 246.993790,42.007092 247.035568,41.643707 
	C249.522110,40.432537 251.966873,39.584747 254.690033,38.640415 
	C253.595123,35.727989 252.447281,33.148716 248.384125,35.022339 
	C247.545944,35.408844 246.157593,35.841824 245.619080,35.444740 
	C240.794510,31.887285 236.103424,28.148796 231.373077,24.463539 
	C231.516098,24.095123 231.659103,23.726707 231.802109,23.358292 
	C234.034317,23.358292 236.266525,23.358292 238.498734,23.358292 
	C238.726318,22.852896 238.953903,22.347502 239.181473,21.842106 
	C237.443512,20.715309 235.220840,18.256962 234.048416,18.683746 
	C227.737793,20.980963 225.786026,16.975256 224.210083,12.739983 
	C221.214188,12.471566 218.604752,12.237774 215.746765,12.000477 
	C215.498215,11.996974 215.001221,11.985239 214.958649,11.618208 
	C213.338730,10.711440 211.752121,9.708223 210.186203,9.739585 
	C207.781525,9.787746 205.391068,10.547157 202.997284,11.002556 
	C203.000000,11.000359 202.995911,11.005831 202.908966,10.655526 
	C200.141769,6.679627 197.884003,7.027717 195.868912,11.347854 
	C193.957535,13.717568 192.251251,15.823962 190.404160,17.798626 
	C189.287292,18.992638 187.805023,19.855085 186.739868,21.085474 
	C181.680359,26.929739 176.700623,32.843212 171.705795,38.743309 
	C162.973068,49.058750 150.183441,55.372337 143.302124,67.525986 
	C142.998596,68.062042 142.347626,68.474731 141.769302,68.770409 
	C136.301834,71.565819 136.035706,75.923973 137.686539,81.137207 
	C134.165222,82.000488 130.975830,82.473122 132.643356,87.278389 
	C133.043152,88.430473 131.601776,90.221489 131.007156,91.718651 
	C129.700668,90.464661 128.349457,89.253349 127.100594,87.944382 
	C125.908905,86.695320 124.941116,84.392403 123.667648,84.235565 
	C120.971008,83.903442 117.875320,82.980453 115.897118,86.748688 
	C114.218071,89.947083 111.944901,93.861641 108.953682,95.111282 
	C103.999870,97.180817 103.395164,99.932426 105.309151,103.894569 
	C106.493134,106.345520 108.803726,108.225990 110.260399,110.578178 
	C112.027626,113.431801 114.074829,116.359535 114.826035,119.533287 
	C115.803017,123.660912 119.730728,128.928146 123.894585,128.531525 
	C129.721802,127.976448 129.914536,132.255707 130.846008,135.631775 
	C131.838684,139.229645 136.130219,145.042145 139.477661,144.489822 
	C144.349319,143.686020 146.365372,147.138428 146.315765,149.744263 
	C146.174103,157.185913 151.848648,158.603256 156.416077,161.399063 
	C157.409439,162.007095 158.655624,162.459518 159.283600,163.341064 
	C160.048965,164.415421 160.284164,165.867432 161.223343,168.472977 
	C157.569031,166.722321 155.483932,165.122803 153.198715,164.749985 
	C147.962326,163.895706 151.825653,168.707428 149.509155,170.877213 
	C148.030151,169.705948 146.276733,168.648682 144.950424,167.200302 
	C141.879120,163.846329 137.066528,164.177856 134.529114,167.942093 
	C133.672852,169.212372 132.430328,170.340302 131.132065,171.169769 
	C128.528534,172.833191 126.283653,182.865128 128.224014,185.206421 
	C128.596054,185.655319 129.407104,185.740387 130.227325,186.292847 
	C131.017761,188.111633 131.436966,190.854660 132.200745,190.954254 
	C137.738159,191.676056 139.476990,196.845291 142.964828,199.815659 
	C150.237289,206.009125 157.026031,212.785614 163.839020,219.499634 
	C171.778320,227.323578 179.632263,235.240433 187.319214,243.311295 
	C190.799911,246.965836 193.788284,251.089279 197.000000,255.000000 
M252.504288,219.357880 
	C252.305695,219.683090 252.107101,220.008316 251.908508,220.333557 
	C252.193695,220.413635 252.478882,220.493713 252.764069,220.573792 
	C252.816483,220.204620 252.868912,219.835464 252.504288,219.357880 
M236.933472,235.475449 
	C236.557602,235.628830 236.181732,235.782211 235.805893,235.935593 
	C235.983444,236.156708 236.161011,236.377823 236.338562,236.598938 
	C236.630951,236.333176 236.923340,236.067413 236.933472,235.475449 
z"/>
<path fill="#060715" opacity="1.000000" stroke="none" 
	d="
M197.428467,255.000000 
	C193.788284,251.089279 190.799911,246.965836 187.319214,243.311295 
	C179.632263,235.240433 171.778320,227.323578 163.839020,219.499634 
	C157.026031,212.785614 150.237289,206.009125 142.964828,199.815659 
	C139.476990,196.845291 137.738159,191.676056 132.200745,190.954254 
	C131.436966,190.854660 131.017761,188.111633 130.225769,185.897308 
	C132.124954,181.626511 133.972641,177.857315 136.411682,174.520355 
	C140.100540,169.473450 145.330368,169.193390 149.803375,173.659851 
	C155.929611,179.777145 161.919922,186.032089 167.903900,192.289780 
	C171.401596,195.947433 174.712616,199.783844 178.217239,203.434601 
	C182.776993,208.184464 190.154572,209.846222 192.772018,216.832138 
	C193.143631,217.823929 194.885345,218.302353 196.225311,219.217224 
	C197.295959,219.949371 198.134247,220.482651 198.997162,221.382019 
	C200.865509,225.293930 204.063828,228.763016 204.269897,232.401596 
	C204.693832,239.886414 203.517670,247.461853 203.000000,255.000000 
	C201.285645,255.000000 199.571289,255.000000 197.428467,255.000000 
M159.262329,211.236572 
	C173.117325,225.226440 186.972321,239.216293 201.477646,253.862793 
	C201.477646,246.611099 201.248154,240.692429 201.556641,234.801956 
	C201.769623,230.735367 200.191574,227.965439 197.362015,225.261276 
	C189.191238,217.452530 181.179474,209.474747 173.203873,201.465149 
	C163.370941,191.590347 153.637421,181.616547 144.109924,171.938446 
	C139.687317,176.151886 135.790268,179.864624 131.671753,183.788361 
	C140.849960,192.918442 149.804993,201.826523 159.262329,211.236572 
z"/>
<path fill="#020203" opacity="1.000000" stroke="none" 
	d="
M203.466125,255.000000 
	C203.517670,247.461853 204.693832,239.886414 204.269897,232.401596 
	C204.063828,228.763016 200.865509,225.293930 199.342163,221.304031 
	C201.579361,220.060760 203.448502,218.771698 205.424347,218.579453 
	C208.251343,218.304398 211.156357,218.831131 213.945862,219.367462 
	C212.578857,224.584320 211.230225,229.433578 210.030380,234.319366 
	C209.148254,237.911469 208.695358,241.623459 207.612274,245.147125 
	C206.751541,247.947372 207.247009,250.516449 210.064041,250.280441 
	C213.774399,249.969620 217.358932,248.156815 220.997559,246.989777 
	C222.330841,249.394821 223.664139,251.799881 224.998718,254.602478 
	C223.933334,255.000000 222.866653,255.000000 221.305969,254.712250 
	C219.874619,254.616348 218.937317,254.808167 218.000000,255.000000 
	C213.310745,255.000000 208.621490,255.000000 203.466125,255.000000 
M207.501801,251.471573 
	C207.501801,251.471573 207.517731,251.513290 207.501801,251.471573 
z"/>
<path fill="#000000" opacity="1.000000" stroke="none" 
	d="
M218.375000,255.000000 
	C218.937317,254.808167 219.874619,254.616348 220.905975,254.712250 
	C220.250000,255.000000 219.500000,255.000000 218.375000,255.000000 
z"/>
<path fill="#020203" opacity="1.000000" stroke="none" 
	d="
M195.992950,219.018372 
	C194.885345,218.302353 193.143631,217.823929 192.772018,216.832138 
	C190.154572,209.846222 182.776993,208.184464 178.217239,203.434601 
	C174.712616,199.783844 171.401596,195.947433 167.903900,192.289780 
	C161.919922,186.032089 155.929611,179.777145 149.803375,173.659851 
	C145.330368,169.193390 140.100540,169.473450 136.411682,174.520355 
	C133.972641,177.857315 132.124954,181.626511 130.014069,185.597748 
	C129.407104,185.740387 128.596054,185.655319 128.224014,185.206421 
	C126.283653,182.865128 128.528534,172.833191 131.132065,171.169769 
	C132.430328,170.340302 133.672852,169.212372 134.529114,167.942093 
	C137.066528,164.177856 141.879120,163.846329 144.950424,167.200302 
	C146.276733,168.648682 148.030151,169.705948 149.509155,170.877213 
	C151.825653,168.707428 147.962326,163.895706 153.198715,164.749985 
	C155.483932,165.122803 157.569031,166.722321 161.223343,168.472977 
	C160.284164,165.867432 160.048965,164.415421 159.283600,163.341064 
	C158.655624,162.459518 157.409439,162.007095 156.416077,161.399063 
	C151.848648,158.603256 146.174103,157.185913 146.315765,149.744263 
	C146.365372,147.138428 144.349319,143.686020 139.477661,144.489822 
	C136.130219,145.042145 131.838684,139.229645 130.846008,135.631775 
	C129.914536,132.255707 129.721802,127.976448 123.894585,128.531525 
	C119.730728,128.928146 115.803017,123.660912 114.826035,119.533287 
	C114.074829,116.359535 112.027626,113.431801 110.260399,110.578178 
	C108.803726,108.225990 106.493134,106.345520 105.309151,103.894569 
	C103.395164,99.932426 103.999870,97.180817 108.953682,95.111282 
	C111.944901,93.861641 114.218071,89.947083 115.897118,86.748688 
	C117.875320,82.980453 120.971008,83.903442 123.667648,84.235565 
	C124.941116,84.392403 125.908905,86.695320 127.100594,87.944382 
	C128.349457,89.253349 129.700668,90.464661 131.007156,91.718651 
	C131.601776,90.221489 133.043152,88.430473 132.643356,87.278389 
	C130.975830,82.473122 134.165222,82.000488 138.023682,81.223572 
	C140.427231,83.465950 141.971283,85.929871 143.901657,88.040482 
	C146.450516,90.827339 149.302231,93.337204 151.798065,96.227325 
	C151.476562,98.200623 151.380753,99.912735 151.284943,101.624847 
	C152.861786,101.413597 154.438614,101.202347 156.310226,101.166962 
	C162.650406,103.889198 167.163208,108.063057 169.721588,114.101624 
	C169.260971,115.277336 169.108627,116.336426 168.956299,117.395508 
	C169.644867,116.919151 170.333435,116.442802 171.399261,115.974571 
	C178.114761,117.857361 181.164734,123.358452 184.879486,128.275467 
	C183.217392,132.861099 186.212051,131.122208 188.280960,131.170654 
	C191.005936,133.779480 193.195862,136.563828 195.962341,138.541809 
	C197.875473,139.909668 200.624374,140.792603 202.920959,140.647141 
	C204.043228,140.576065 205.767700,137.702301 205.849045,136.030396 
	C206.026779,132.377335 205.328262,128.681656 205.362152,124.994232 
	C206.824387,123.990051 207.912201,122.995026 209.371765,121.927643 
	C212.026947,120.894066 215.957489,121.330101 213.879562,115.287148 
	C211.826721,118.111282 210.413361,120.055641 208.682831,122.061844 
	C207.239914,122.749619 206.114151,123.375549 204.990143,123.630890 
	C204.093796,119.670128 203.397934,116.011711 202.218719,112.516365 
	C201.552673,110.542130 200.091537,108.836128 199.353088,107.075714 
	C201.231979,107.350883 202.746307,107.559631 204.260635,107.768387 
	C204.556107,107.243164 204.851578,106.717949 205.147049,106.192734 
	C203.814072,105.208038 202.481079,104.223351 201.148087,103.238663 
	C200.428528,104.496284 199.708954,105.753906 198.650269,106.938141 
	C196.635803,104.816040 194.002716,102.912720 193.660995,100.661568 
	C193.470123,99.404190 197.084579,97.569160 199.325378,96.052765 
	C201.983170,96.899147 202.540176,95.885063 203.178101,93.669548 
	C203.778214,91.585320 205.681000,89.876167 206.992279,88.366241 
	C205.445892,93.943443 208.634949,97.030510 211.884247,100.311104 
	C214.506516,102.958626 216.655869,106.074554 218.719650,109.092957 
	C218.042999,110.056007 217.661728,110.908768 217.280457,111.761536 
	C217.677185,111.859512 218.073914,111.957489 218.470642,112.055473 
	C218.651978,111.031853 218.833328,110.008232 219.347137,109.060966 
	C222.413361,111.670609 225.252045,114.101707 227.848694,116.768463 
	C230.053757,119.033066 231.979538,121.569618 233.692963,124.064133 
	C232.323944,125.152344 230.996002,126.005997 230.351547,127.221909 
	C229.841019,128.185181 229.908722,129.673477 230.247910,130.764389 
	C230.389893,131.220978 232.195343,131.718414 232.722580,131.381210 
	C233.828064,130.674210 234.917389,129.555145 235.384033,128.359634 
	C235.750290,127.421318 235.171188,126.114006 235.336700,125.072189 
	C238.256546,126.925606 241.125626,128.382919 243.391006,130.489456 
	C248.393280,135.140961 253.090042,140.120895 257.914276,144.963989 
	C261.486664,148.550323 265.210236,151.999329 268.604156,155.747040 
	C273.765869,161.446869 278.578888,167.463913 283.777069,173.128708 
	C286.885498,176.516190 290.564270,175.918640 294.024750,172.683777 
	C297.078705,169.828918 300.644379,167.521454 303.984131,164.972290 
	C303.971771,166.792130 304.152039,168.641373 303.880402,170.421616 
	C303.694519,171.639709 303.161804,173.460480 302.297607,173.810577 
	C297.524139,175.744171 292.673920,178.366959 287.709442,178.708237 
	C282.526001,179.064545 280.759430,181.058411 280.045837,185.593369 
	C279.806519,187.114105 278.547302,188.474350 277.344543,189.598389 
	C272.020721,183.410965 267.435394,177.214294 262.116882,171.728409 
	C253.715881,163.062973 244.822403,154.874969 236.145126,146.476883 
	C236.040222,146.375366 236.038116,146.167633 236.208847,145.744293 
	C238.421677,143.605286 240.413681,141.731430 242.405685,139.857574 
	C239.102798,136.546738 233.776886,136.635498 231.637787,139.948471 
	C228.342285,137.649750 225.476669,135.296127 222.419769,133.224838 
	C220.071960,131.634018 217.483124,130.398926 214.716492,129.030151 
	C214.238602,129.377411 214.045670,129.700150 213.489166,130.068634 
	C212.481430,131.569717 211.353775,133.003494 211.287689,134.484634 
	C211.118607,138.274139 211.832993,142.128403 211.435013,145.876160 
	C210.908112,150.837769 210.402985,155.012146 215.998428,158.001495 
	C220.492142,160.402267 220.109833,164.220764 216.008881,166.646790 
	C215.787766,165.120514 215.571777,163.962097 215.325562,162.641495 
	C213.682358,163.573074 212.582184,164.257767 211.427460,164.832901 
	C210.430023,165.329712 209.370529,165.701965 208.338470,166.129257 
	C208.456390,166.668243 208.574310,167.207214 208.692230,167.746201 
	C211.133041,167.502014 213.573853,167.257828 215.816284,167.296814 
	C211.960129,169.629684 211.293976,172.611298 211.775070,176.703476 
	C212.439651,182.356354 212.076462,188.123703 212.400452,193.828018 
	C212.469849,195.049988 213.320221,196.646393 214.314133,197.276932 
	C215.269363,197.882904 216.978561,197.784821 218.173874,197.411484 
	C219.862411,196.884155 221.383041,195.819183 223.313507,195.133575 
	C226.838058,195.978882 228.823364,197.387711 227.581497,201.154114 
	C227.310959,201.974579 227.852722,203.062866 227.994843,204.389221 
	C223.647141,209.504471 219.324982,214.258331 215.025909,218.627853 
	C216.251099,212.764603 217.453186,207.285690 218.858231,200.881821 
	C215.164673,202.656677 212.329681,205.135239 209.590790,205.033264 
	C206.622803,204.922729 203.744385,202.407135 200.825470,200.943634 
	C202.432373,206.992233 201.912659,207.458282 195.475021,206.488113 
	C194.493668,206.340210 193.346603,207.292038 192.276199,207.735229 
	C193.106277,208.760773 193.843536,209.891068 194.817459,210.754349 
	C195.152527,211.051376 196.212265,210.417450 196.708115,210.668564 
	C198.017242,211.331573 199.862579,212.025253 200.230026,213.128021 
	C200.547836,214.081818 199.258469,215.705734 198.436508,216.860413 
	C197.822739,217.722656 196.821594,218.309113 195.992950,219.018372 
M205.991455,186.269318 
	C205.987411,183.106094 206.589935,179.787979 205.831329,176.817459 
	C204.799133,172.775589 203.661362,168.103317 200.938812,165.264877 
	C189.485550,153.324051 177.389114,142.002182 165.597458,130.383347 
	C152.252823,117.234283 138.983566,104.008720 125.678574,90.819420 
	C123.645569,88.804085 121.748856,88.914055 119.595024,90.853836 
	C117.391388,92.838478 115.024666,94.702568 112.511040,96.269180 
	C108.049866,99.049606 106.814453,102.974586 110.113174,106.870987 
	C113.691574,111.097717 117.818657,114.863731 121.751259,118.785744 
	C126.237259,123.259659 130.810104,127.646820 135.275375,132.141068 
	C139.217957,136.109222 143.051239,140.185699 146.956772,144.190979 
	C151.840164,149.199081 156.754395,154.177109 161.643768,159.179398 
	C167.070526,164.731476 172.458527,170.321655 177.910522,175.848770 
	C184.074036,182.097214 190.157166,188.436783 196.580109,194.408844 
	C198.110901,195.832214 200.960876,196.694412 202.998016,196.398071 
	C204.245880,196.216553 205.400345,193.443985 206.033813,191.637589 
	C206.496094,190.319336 206.040039,188.679047 205.991455,186.269318 
M169.384995,175.686722 
	C167.694092,175.262085 166.023361,174.668304 164.306244,174.463348 
	C162.779510,174.281113 161.201340,174.529922 159.645874,174.588486 
	C160.426300,176.267349 160.966293,178.140427 162.095093,179.537918 
	C162.610001,180.175415 164.284058,179.926819 165.437317,179.990021 
	C170.953796,180.292252 174.938736,183.822556 175.946518,189.361099 
	C176.065125,190.012924 175.840698,190.954758 176.207733,191.293121 
	C177.561157,192.540909 178.974030,193.895432 180.625977,194.560394 
	C181.250153,194.811630 182.584702,193.298111 183.595428,192.589020 
	C182.466568,191.569550 181.133423,190.697464 180.263321,189.491348 
	C179.292099,188.145050 178.707779,186.510513 178.018143,184.973129 
	C177.452087,183.711197 177.272995,181.588501 176.408142,181.277527 
	C173.884964,180.370270 172.886887,179.213303 173.520187,176.483292 
	C173.716675,175.636337 172.801544,174.531525 172.395325,173.544754 
	C171.515594,174.068817 170.635864,174.592896 169.384995,175.686722 
M201.928879,161.235046 
	C202.942749,161.997040 203.956619,162.759033 205.004974,163.546967 
	C206.059875,159.780762 207.206406,156.853790 207.598724,153.828979 
	C207.817673,152.141022 206.783112,150.290482 206.313431,148.513184 
	C204.632004,149.512177 201.814850,150.243301 201.503021,151.565323 
	C200.831314,154.413269 201.447876,157.565079 201.928879,161.235046 
M189.394302,191.841675 
	C188.407974,192.916199 187.421646,193.990707 186.485779,195.010254 
	C189.996170,200.306244 190.665497,200.545578 194.607208,197.736649 
	C193.064453,195.676498 191.512283,193.603745 189.394302,191.841675 
M192.394455,146.553345 
	C193.171692,148.563187 193.948944,150.573013 194.726196,152.582855 
	C195.295349,152.522919 195.864502,152.462997 196.433640,152.403061 
	C196.652481,150.301727 196.871323,148.200394 197.090179,146.099060 
	C195.613297,146.033463 194.136414,145.967880 192.394455,146.553345 
M269.152527,169.458450 
	C269.497253,170.189484 270.033508,171.587097 270.157928,171.551346 
	C271.962738,171.032776 273.712372,170.322113 276.161194,169.398712 
	C274.865814,167.703445 273.999847,166.570190 273.007477,165.271500 
	C271.554626,166.832260 270.562347,167.898193 269.152527,169.458450 
M256.520996,157.599976 
	C257.198364,157.122574 257.875732,156.645187 258.553101,156.167801 
	C257.906403,155.521881 257.281433,154.360550 256.608704,154.332184 
	C254.964203,154.262817 253.297623,154.717270 251.639923,154.960892 
	C251.682983,155.431534 251.726044,155.902191 251.769119,156.372833 
	C253.122482,156.727478 254.475861,157.082108 256.520996,157.599976 
M261.501831,159.665802 
	C261.501831,162.469482 261.501831,165.273163 261.501831,168.076843 
	C262.153931,167.993317 262.806061,167.909790 263.458160,167.826279 
	C263.005737,165.180038 262.553284,162.533813 261.501831,159.665802 
M165.444000,125.614441 
	C165.728851,124.700577 166.013702,123.786713 166.298553,122.872849 
	C164.801865,122.718643 163.305191,122.564445 161.808502,122.410240 
	C161.717606,122.874069 161.626709,123.337891 161.535797,123.801720 
	C162.615173,124.405602 163.694550,125.009483 165.444000,125.614441 
M179.082977,138.124207 
	C178.814499,138.822098 178.546021,139.519989 178.277542,140.217896 
	C179.657303,140.292847 181.037064,140.367798 182.416824,140.442749 
	C182.483765,139.985504 182.550705,139.528259 182.617630,139.071014 
	C181.665543,138.733627 180.713440,138.396240 179.082977,138.124207 
M178.419128,127.829079 
	C177.408401,128.129547 176.397659,128.430008 175.386932,128.730469 
	C176.016068,129.378662 176.645187,130.026855 177.274307,130.675049 
	C177.824951,129.855286 178.375595,129.035538 178.419128,127.829079 
M162.640015,114.352379 
	C162.518723,113.083466 162.397415,111.814552 162.276123,110.545639 
	C161.480469,110.829910 160.684814,111.114182 159.889160,111.398445 
	C160.610611,112.460716 161.332077,113.522987 162.640015,114.352379 
M278.647705,176.567902 
	C278.987579,175.731903 279.327423,174.895920 279.667297,174.059921 
	C279.149078,173.968765 278.630890,173.877609 278.112701,173.786453 
	C278.112701,174.685883 278.112701,175.585312 278.647705,176.567902 
M144.207047,92.182701 
	C143.675858,92.111382 143.144653,92.040062 142.613480,91.968742 
	C142.639465,92.393143 142.665451,92.817551 142.691437,93.241959 
	C143.253845,93.050514 143.816238,92.859070 144.207047,92.182701 
M246.107910,146.210785 
	C246.530090,145.987137 246.952255,145.763489 247.374420,145.539841 
	C247.059402,145.226913 246.744385,144.914001 246.429352,144.601089 
	C246.208420,145.024429 245.987488,145.447784 246.107910,146.210785 
z"/>
<path fill="#020203" opacity="1.000000" stroke="none" 
	d="
M202.994583,11.004753 
	C205.391068,10.547157 207.781525,9.787746 210.186203,9.739585 
	C211.752121,9.708223 213.338730,10.711440 214.598236,11.646303 
	C210.813568,13.366014 208.657852,15.085008 210.323044,19.477861 
	C210.883347,20.956026 209.449646,23.214830 208.858902,25.095356 
	C208.497696,26.245186 207.443573,28.215538 207.656311,28.354507 
	C212.120834,31.271111 210.539627,35.136120 209.194794,38.807594 
	C211.646118,40.509354 214.065536,41.756596 215.945190,43.564899 
	C227.098358,54.294827 236.579422,66.702538 248.823883,76.347191 
	C249.467834,76.854424 249.866333,77.676376 250.515839,78.173004 
	C257.718567,83.680527 261.605316,93.002769 270.998352,95.984604 
	C268.103638,99.597542 264.209412,99.595268 261.202911,95.978844 
	C254.933258,88.437378 249.887619,88.809853 243.776505,98.533928 
	C247.009598,98.158638 249.603043,97.106697 251.521194,97.834503 
	C253.676743,98.652405 255.222641,101.077042 257.436127,103.186066 
	C254.770615,104.625854 253.081055,105.538475 250.857574,106.654572 
	C246.541870,102.576851 242.760101,98.295654 239.289642,93.861519 
	C242.319702,91.672211 245.905121,90.157700 247.528473,87.461739 
	C249.380295,84.386383 241.117386,75.532631 237.376251,76.130386 
	C236.357330,76.293182 234.709396,77.097816 234.658295,77.716003 
	C234.571564,78.765358 235.308655,80.092369 236.082581,80.961586 
	C237.947174,83.055687 240.033401,84.952438 241.690262,86.592293 
	C238.927856,88.418251 236.959457,89.719368 234.653946,90.939621 
	C230.870895,86.575684 227.424942,82.292595 224.308777,78.061119 
	C226.483948,76.928055 228.818039,76.107491 230.044342,74.461571 
	C231.410843,72.627472 233.074966,68.759056 232.338318,68.010101 
	C229.372452,64.994736 225.547775,62.814346 221.967834,60.434658 
	C221.730408,60.276840 220.607727,60.893082 220.373154,61.379162 
	C218.838211,64.559975 217.434570,67.804153 215.648010,70.915337 
	C209.814896,67.781586 206.462143,69.757736 206.513519,76.091957 
	C206.537628,79.061829 206.835312,82.029472 206.682037,84.899414 
	C204.899399,84.199203 203.443710,83.597717 201.986923,82.555321 
	C201.001038,78.082733 200.016266,74.051056 198.936462,69.704193 
	C198.568481,68.633125 198.295502,67.877235 197.947220,66.829651 
	C196.938858,66.508522 195.734695,66.087456 195.117722,66.514580 
	C191.670776,68.900795 188.365845,71.492142 184.987701,73.661385 
	C184.085297,72.462959 183.207565,71.616539 182.329849,70.770126 
	C181.967239,71.606621 181.604645,72.443115 181.242050,73.279610 
	C182.499146,73.523399 183.756241,73.767181 184.984100,74.365555 
	C183.772858,76.259613 182.672272,77.870590 181.394058,79.325531 
	C177.050385,84.269783 172.233871,84.210052 168.498672,78.633942 
	C167.493530,77.133423 167.616531,73.524750 168.753830,72.170090 
	C174.394562,65.451180 182.867554,61.637611 187.612427,53.807671 
	C189.225494,51.145813 191.779541,48.891983 194.301498,46.975243 
	C200.467209,42.289188 206.246674,37.599991 204.035110,28.533108 
	C203.809525,27.608265 204.215759,26.547857 204.144928,25.563591 
	C203.795502,20.708197 203.384109,15.857262 202.994583,11.004753 
M199.017822,57.581467 
	C203.118423,59.222809 207.219025,60.864151 211.668427,62.645103 
	C211.624680,62.707424 211.972336,62.184929 212.347229,61.682774 
	C214.172821,59.237495 217.352234,56.843903 217.438126,54.342243 
	C217.516144,52.070225 214.214966,49.694805 212.441010,47.336758 
	C212.048477,46.814991 211.909363,46.092583 211.489822,45.602829 
	C209.450516,43.222244 202.413727,43.313187 201.290146,45.729855 
	C199.658112,49.240124 198.092117,52.781097 196.377792,56.574875 
	C196.578812,56.651588 197.459137,56.987549 199.017822,57.581467 
z"/>
<path fill="#060715" opacity="1.000000" stroke="none" 
	d="
M202.997284,11.002556 
	C203.384109,15.857262 203.795502,20.708197 204.144928,25.563591 
	C204.215759,26.547857 203.809525,27.608265 204.035110,28.533108 
	C206.246674,37.599991 200.467209,42.289188 194.301498,46.975243 
	C191.779541,48.891983 189.225494,51.145813 187.612427,53.807671 
	C182.867554,61.637611 174.394562,65.451180 168.753830,72.170090 
	C167.616531,73.524750 167.493530,77.133423 168.498672,78.633942 
	C172.233871,84.210052 177.050385,84.269783 181.394058,79.325531 
	C182.672272,77.870590 183.772858,76.259613 184.977417,74.360077 
	C185.000000,74.000000 185.012375,74.013390 185.012375,74.013390 
	C188.365845,71.492142 191.670776,68.900795 195.117722,66.514580 
	C195.734695,66.087456 196.938858,66.508522 197.822052,67.134216 
	C190.689621,75.224876 183.607025,82.719261 176.737305,89.988396 
	C171.126984,84.592484 166.499283,80.141632 162.561066,76.353920 
	C174.735123,63.754501 186.774078,51.317886 198.771103,38.840958 
	C199.892914,37.674274 201.544998,36.283943 201.597214,34.944679 
	C201.877792,27.747776 201.729843,20.534166 201.729843,13.794015 
	C180.727600,34.736397 159.686096,55.717937 139.354996,75.991089 
	C160.095108,96.800980 181.074020,117.850464 202.169983,139.017395 
	C202.169983,132.790314 202.373154,126.389854 202.053345,120.015633 
	C201.949600,117.948288 200.966782,115.467812 199.535980,114.011505 
	C195.520340,109.924248 191.061630,106.272285 186.358841,102.074791 
	C189.822769,98.843842 191.861069,96.601288 194.236557,94.804482 
	C198.098206,91.883522 199.234726,88.178749 198.910904,83.482582 
	C198.603119,79.018845 198.964401,74.508965 199.031479,70.019379 
	C200.016266,74.051056 201.001038,78.082733 201.834747,82.913742 
	C200.783859,87.806847 199.884064,91.900635 198.984283,95.994431 
	C197.084579,97.569160 193.470123,99.404190 193.660995,100.661568 
	C194.002716,102.912720 196.635803,104.816040 198.655563,106.932373 
	C199.000000,107.000000 198.988525,107.009308 198.988525,107.009308 
	C200.091537,108.836128 201.552673,110.542130 202.218719,112.516365 
	C203.397934,116.011711 204.093796,119.670128 204.989563,123.881348 
	C204.987381,124.669388 204.987564,124.836388 204.987732,125.003395 
	C205.328262,128.681656 206.026779,132.377335 205.849045,136.030396 
	C205.767700,137.702301 204.043228,140.576065 202.920959,140.647141 
	C200.624374,140.792603 197.875473,139.909668 195.962341,138.541809 
	C193.195862,136.563828 191.005936,133.779480 188.211334,130.847137 
	C186.905106,129.564209 185.957581,128.773300 185.010056,127.982399 
	C181.164734,123.358452 178.114761,117.857361 171.339294,115.698471 
	C170.611343,114.937828 170.320602,114.461418 170.029846,113.985001 
	C167.163208,108.063057 162.650406,103.889198 156.239258,100.833374 
	C154.590286,98.871315 153.307022,97.418724 152.023773,95.966133 
	C149.302231,93.337204 146.450516,90.827339 143.901657,88.040482 
	C141.971283,85.929871 140.427231,83.465950 138.374115,81.072891 
	C136.035706,75.923973 136.301834,71.565819 141.769302,68.770409 
	C142.347626,68.474731 142.998596,68.062042 143.302124,67.525986 
	C150.183441,55.372337 162.973068,49.058750 171.705795,38.743309 
	C176.700623,32.843212 181.680359,26.929739 186.739868,21.085474 
	C187.805023,19.855085 189.287292,18.992638 190.404160,17.798626 
	C192.251251,15.823962 193.957535,13.717568 196.304642,11.342643 
	C198.922714,11.014342 200.959320,11.010087 202.995911,11.005831 
	C202.995911,11.005831 203.000000,11.000359 202.997284,11.002556 
z"/>
<path fill="#060715" opacity="1.000000" stroke="none" 
	d="
M222.975433,194.984039 
	C221.383041,195.819183 219.862411,196.884155 218.173874,197.411484 
	C216.978561,197.784821 215.269363,197.882904 214.314133,197.276932 
	C213.320221,196.646393 212.469849,195.049988 212.400452,193.828018 
	C212.076462,188.123703 212.439651,182.356354 211.775070,176.703476 
	C211.293976,172.611298 211.960129,169.629684 215.808960,167.289978 
	C216.000000,167.000000 216.014023,167.014664 216.014023,167.014664 
	C220.109833,164.220764 220.492142,160.402267 215.998428,158.001495 
	C210.402985,155.012146 210.908112,150.837769 211.435013,145.876160 
	C211.832993,142.128403 211.118607,138.274139 211.287689,134.484634 
	C211.353775,133.003494 212.481430,131.569717 213.567383,130.528381 
	C214.012100,132.608185 214.198669,134.297592 213.988144,135.935959 
	C212.624939,146.544159 214.255676,155.980209 223.952606,162.419189 
	C224.153290,162.552429 224.126251,163.028580 224.485321,164.462006 
	C222.778961,165.899490 220.462280,167.563858 218.517029,169.585587 
	C217.094727,171.063812 215.273224,172.959885 215.167511,174.760010 
	C214.772034,181.494110 215.009338,188.265366 215.009338,196.300522 
	C222.535507,188.338974 229.096924,181.397964 235.658173,174.457153 
	C241.045578,179.875198 245.472549,184.327377 251.021515,189.907913 
	C249.300140,191.108627 247.302155,192.124069 245.781845,193.623734 
	C235.348099,203.915771 224.982300,214.277588 214.692215,224.713165 
	C213.511871,225.910248 212.257065,227.674210 212.194305,229.222260 
	C211.921417,235.952927 212.077164,242.700958 212.077164,249.626389 
	C232.793808,228.843338 253.079727,208.492401 273.987854,187.517242 
	C273.005646,186.724335 271.333923,185.610535 269.943115,184.216461 
	C251.606155,165.835876 233.308762,147.415833 215.001465,129.005646 
	C217.483124,130.398926 220.071960,131.634018 222.419769,133.224838 
	C225.476669,135.296127 228.342285,137.649750 231.642761,139.941818 
	C231.995300,140.001770 231.984970,140.012573 231.990799,140.385193 
	C232.994415,142.176147 233.992188,143.594452 235.132446,145.201721 
	C235.484344,145.629532 235.722046,145.835800 235.988022,146.009476 
	C236.038116,146.167633 236.040222,146.375366 236.145126,146.476883 
	C244.822403,154.874969 253.715881,163.062973 262.116882,171.728409 
	C267.435394,177.214294 272.020721,183.410965 276.968048,189.644409 
	C275.565155,191.332550 273.670593,192.417130 272.788055,194.049026 
	C270.922302,197.499054 269.585297,201.235016 267.890686,205.181412 
	C262.590698,199.641586 260.333740,206.683868 257.635498,209.255219 
	C247.708908,218.715088 238.341080,228.762939 228.808655,238.633652 
	C226.312408,241.218475 223.981018,243.962509 221.285736,246.811600 
	C217.358932,248.156815 213.774399,249.969620 210.064041,250.280441 
	C207.247009,250.516449 206.751541,247.947372 207.612274,245.147125 
	C208.695358,241.623459 209.148254,237.911469 210.030380,234.319366 
	C211.230225,229.433578 212.578857,224.584320 214.189392,219.366821 
	C214.515106,219.014236 215.002838,219.012207 215.002838,219.012207 
	C219.324982,214.258331 223.647141,209.504471 228.303986,204.233261 
	C233.536499,200.088135 238.761398,196.817947 243.234726,192.726089 
	C247.238434,189.063782 242.914078,186.014465 240.945465,183.442383 
	C239.941452,182.130585 236.098450,181.101120 235.288406,181.846237 
	C230.883148,185.898331 227.023132,190.543198 222.975433,194.984039 
z"/>
<path fill="#060715" opacity="1.000000" stroke="none" 
	d="
M223.979004,78.009514 
	C227.424942,82.292595 230.870895,86.575684 234.828415,91.202744 
	C236.552780,92.369301 237.765564,93.191872 238.978333,94.014450 
	C242.760101,98.295654 246.541870,102.576851 250.657623,106.938599 
	C251.165405,107.283455 251.372177,107.518768 251.944946,108.054733 
	C252.488297,108.624596 252.729095,108.828957 253.000305,108.997467 
	C255.276642,111.350395 257.563568,113.693199 259.827362,116.058136 
	C266.862396,123.407509 273.745789,130.909912 280.979095,138.058395 
	C284.564697,141.601944 289.764771,143.838242 292.484985,147.851715 
	C296.222443,153.366104 303.877563,156.196533 303.985107,164.578293 
	C300.644379,167.521454 297.078705,169.828918 294.024750,172.683777 
	C290.564270,175.918640 286.885498,176.516190 283.777069,173.128708 
	C278.578888,167.463913 273.765869,161.446869 268.604156,155.747040 
	C265.210236,151.999329 261.486664,148.550323 257.914276,144.963989 
	C253.090042,140.120895 248.393280,135.140961 243.391006,130.489456 
	C241.125626,128.382919 238.256546,126.925606 235.194794,124.887238 
	C234.521896,124.365311 234.288788,124.160347 234.028900,123.985832 
	C231.979538,121.569618 230.053757,119.033066 227.848694,116.768463 
	C225.252045,114.101707 222.413361,111.670609 219.339813,109.068649 
	C219.000000,108.999969 219.015030,108.982681 219.015030,108.982681 
	C216.655869,106.074554 214.506516,102.958626 211.884247,100.311104 
	C208.634949,97.030510 205.445892,93.943443 206.993210,87.990753 
	C207.011368,86.500061 207.010178,85.749100 207.009003,84.998131 
	C206.835312,82.029472 206.537628,79.061829 206.513519,76.091957 
	C206.462143,69.757736 209.814896,67.781586 215.822266,71.196518 
	C218.884018,73.729836 221.431519,75.869675 223.979004,78.009514 
M292.724945,170.236526 
	C295.693542,167.585892 298.662170,164.935272 300.934631,162.906235 
	C270.102234,131.993790 239.963470,101.776764 209.414429,71.148392 
	C209.414429,76.870422 209.804825,82.483292 209.279404,88.009064 
	C208.919312,91.796150 210.130463,94.271095 212.665237,96.777000 
	C226.035767,109.995178 239.329849,123.291130 252.597977,136.612350 
	C264.790161,148.853363 276.915833,161.160690 289.130707,173.499329 
	C290.491669,172.276291 291.352631,171.502579 292.724945,170.236526 
z"/>
<path fill="#060715" opacity="1.000000" stroke="none" 
	d="
M271.244354,95.986473 
	C261.605316,93.002769 257.718567,83.680527 250.515839,78.173004 
	C249.866333,77.676376 249.467834,76.854424 248.823883,76.347191 
	C236.579422,66.702538 227.098358,54.294827 215.945190,43.564899 
	C214.065536,41.756596 211.646118,40.509354 209.194794,38.807594 
	C210.539627,35.136120 212.120834,31.271111 207.656311,28.354507 
	C207.443573,28.215538 208.497696,26.245186 208.858902,25.095356 
	C209.449646,23.214830 210.883347,20.956026 210.323044,19.477861 
	C208.657852,15.085008 210.813568,13.366014 214.640808,12.013334 
	C215.001221,11.985239 215.498215,11.996974 215.920929,12.286024 
	C221.729263,18.256449 226.937592,24.120924 232.556213,29.561712 
	C237.113007,33.974266 242.162704,37.877796 246.993790,42.007092 
	C246.993790,42.007092 247.000000,42.000000 247.019165,42.364693 
	C247.834717,43.914421 248.479950,45.244328 249.453217,46.259880 
	C254.137848,51.148056 258.760284,56.111996 263.693756,60.741146 
	C268.957275,65.680038 274.544281,70.274185 279.990082,75.018829 
	C279.990082,75.018822 279.989136,75.510185 280.073212,76.114914 
	C283.170654,81.286629 281.752808,84.942535 278.115417,88.483528 
	C275.814911,90.723068 274.009705,93.471420 271.982361,95.991562 
	C271.982361,95.991562 271.490356,95.988342 271.244354,95.986473 
M220.095047,44.393993 
	C236.208649,60.633099 252.322235,76.872200 267.713165,92.382996 
	C272.262238,88.356422 276.173889,84.894035 278.818146,82.553505 
	C256.528839,60.183826 234.452469,38.027821 212.787018,16.284239 
	C212.787018,19.296556 213.251343,23.325968 212.686035,27.205341 
	C211.651306,34.306351 213.736145,39.798130 220.095047,44.393993 
z"/>
<path fill="#020203" opacity="1.000000" stroke="none" 
	d="
M247.035568,41.643707 
	C242.162704,37.877796 237.113007,33.974266 232.556213,29.561712 
	C226.937592,24.120924 221.729263,18.256449 216.169464,12.289527 
	C218.604752,12.237774 221.214188,12.471566 224.210083,12.739983 
	C225.786026,16.975256 227.737793,20.980963 234.048416,18.683746 
	C235.220840,18.256962 237.443512,20.715309 239.181473,21.842106 
	C238.953903,22.347502 238.726318,22.852896 238.498734,23.358292 
	C236.266525,23.358292 234.034317,23.358292 231.802109,23.358292 
	C231.659103,23.726707 231.516098,24.095123 231.373077,24.463539 
	C236.103424,28.148796 240.794510,31.887285 245.619080,35.444740 
	C246.157593,35.841824 247.545944,35.408844 248.384125,35.022339 
	C252.447281,33.148716 253.595123,35.727989 254.690033,38.640415 
	C251.966873,39.584747 249.522110,40.432537 247.035568,41.643707 
z"/>
<path fill="#020203" opacity="1.000000" stroke="none" 
	d="
M279.971863,74.655716 
	C274.544281,70.274185 268.957275,65.680038 263.693756,60.741146 
	C258.760284,56.111996 254.137848,51.148056 249.453217,46.259880 
	C248.479950,45.244328 247.834717,43.914421 247.015350,42.367619 
	C250.972687,42.377926 253.925568,43.755459 256.273712,47.566143 
	C257.536621,49.615627 261.630310,51.261887 264.097504,50.873257 
	C266.895386,50.432541 268.936890,50.519230 269.872772,52.799953 
	C270.436066,54.172745 269.281616,56.250389 268.785950,58.531952 
	C272.082520,63.184311 276.018097,68.738457 279.971863,74.655716 
M264.811920,56.333599 
	C264.985199,56.191555 265.158478,56.049511 265.331787,55.907490 
	C265.246429,55.814445 265.161072,55.721405 265.075745,55.628349 
	C264.921173,55.791180 264.766632,55.954010 264.811920,56.333599 
z"/>
<path fill="#020203" opacity="1.000000" stroke="none" 
	d="
M272.321289,95.922974 
	C274.009705,93.471420 275.814911,90.723068 278.115417,88.483528 
	C281.752808,84.942535 283.170654,81.286629 280.075378,76.360580 
	C286.686554,76.091682 289.925171,80.917664 287.323151,86.953911 
	C287.134949,87.390495 286.725403,88.102760 286.465027,88.082817 
	C280.110535,87.595970 277.431427,93.587059 272.321289,95.922974 
z"/>
<path fill="#020203" opacity="1.000000" stroke="none" 
	d="
M202.908966,10.655526 
	C200.959320,11.010087 198.922714,11.014342 196.450394,11.023809 
	C197.884003,7.027717 200.141769,6.679627 202.908966,10.655526 
z"/>
<path fill="#060715" opacity="1.000000" stroke="none" 
	d="
M252.712799,219.412079 
	C252.868912,219.835464 252.816483,220.204620 252.764069,220.573792 
	C252.478882,220.493713 252.193695,220.413635 251.908508,220.333557 
	C252.107101,220.008316 252.305695,219.683090 252.712799,219.412079 
z"/>
<path fill="#060715" opacity="1.000000" stroke="none" 
	d="
M237.074600,235.638550 
	C236.923340,236.067413 236.630951,236.333176 236.338562,236.598938 
	C236.161011,236.377823 235.983444,236.156708 235.805878,235.935577 
	C236.181732,235.782211 236.557602,235.628830 237.074600,235.638550 
z"/>
<path fill="#020203" opacity="1.000000" stroke="none" 
	d="
M253.000580,108.748367 
	C252.729095,108.828957 252.488297,108.624596 252.134079,108.195282 
	C252.158340,108.004654 252.326447,108.003128 252.747269,108.000793 
	C253.000000,108.000000 253.001556,108.001068 253.001556,108.001068 
	C253.001556,108.001068 253.000870,108.499268 253.000580,108.748367 
z"/>
<path fill="#020203" opacity="1.000000" stroke="none" 
	d="
M252.999435,107.999237 
	C252.998871,107.998474 253.140793,107.773216 253.140793,107.773216 
	C253.140793,107.773216 253.127655,107.932419 253.064606,107.966743 
	C253.001556,108.001068 253.000000,108.000000 252.999435,107.999237 
z"/>
<path fill="#95A4F1" opacity="1.000000" stroke="none" 
	d="
M159.011169,210.985596 
	C149.804993,201.826523 140.849960,192.918442 131.671753,183.788361 
	C135.790268,179.864624 139.687317,176.151886 144.109924,171.938446 
	C153.637421,181.616547 163.370941,191.590347 173.203873,201.465149 
	C181.179474,209.474747 189.191238,217.452530 197.362015,225.261276 
	C200.191574,227.965439 201.769623,230.735367 201.556641,234.801956 
	C201.248154,240.692429 201.477646,246.611099 201.477646,253.862793 
	C186.972321,239.216293 173.117325,225.226440 159.011169,210.985596 
z"/>
<path fill="#000000" opacity="1.000000" stroke="none" 
	d="
M215.025909,218.627853 
	C215.002838,219.012207 214.515106,219.014236 214.271576,219.014862 
	C211.156357,218.831131 208.251343,218.304398 205.424347,218.579453 
	C203.448502,218.771698 201.579361,220.060760 199.317551,220.937943 
	C198.134247,220.482651 197.295959,219.949371 196.225311,219.217239 
	C196.821594,218.309113 197.822739,217.722656 198.436508,216.860413 
	C199.258469,215.705734 200.547836,214.081818 200.230026,213.128021 
	C199.862579,212.025253 198.017242,211.331573 196.708115,210.668564 
	C196.212265,210.417450 195.152527,211.051376 194.817459,210.754349 
	C193.843536,209.891068 193.106277,208.760773 192.276199,207.735229 
	C193.346603,207.292038 194.493668,206.340210 195.475021,206.488113 
	C201.912659,207.458282 202.432373,206.992233 200.825470,200.943634 
	C203.744385,202.407135 206.622803,204.922729 209.590790,205.033264 
	C212.329681,205.135239 215.164673,202.656677 218.858231,200.881821 
	C217.453186,207.285690 216.251099,212.764603 215.025909,218.627853 
z"/>
<path fill="#060715" opacity="1.000000" stroke="none" 
	d="
M207.509766,251.492432 
	C207.517731,251.513290 207.501801,251.471573 207.509766,251.492432 
z"/>
<path fill="#97A6F4" opacity="1.000000" stroke="none" 
	d="
M214.716492,129.030151 
	C233.308762,147.415833 251.606155,165.835876 269.943115,184.216461 
	C271.333923,185.610535 273.005646,186.724335 273.987854,187.517242 
	C253.079727,208.492401 232.793808,228.843338 212.077164,249.626389 
	C212.077164,242.700958 211.921417,235.952927 212.194305,229.222260 
	C212.257065,227.674210 213.511871,225.910248 214.692215,224.713165 
	C224.982300,214.277588 235.348099,203.915771 245.781845,193.623734 
	C247.302155,192.124069 249.300140,191.108627 251.021515,189.907913 
	C245.472549,184.327377 241.045578,179.875198 235.658173,174.457153 
	C229.096924,181.397964 222.535507,188.338974 215.009338,196.300522 
	C215.009338,188.265366 214.772034,181.494110 215.167511,174.760010 
	C215.273224,172.959885 217.094727,171.063812 218.517029,169.585587 
	C220.462280,167.563858 222.778961,165.899490 224.485321,164.462006 
	C224.126251,163.028580 224.153290,162.552429 223.952606,162.419189 
	C214.255676,155.980209 212.624939,146.544159 213.988144,135.935959 
	C214.198669,134.297592 214.012100,132.608185 213.930969,130.482635 
	C214.045670,129.700150 214.238602,129.377411 214.716492,129.030151 
z"/>
<path fill="#060715" opacity="1.000000" stroke="none" 
	d="
M205.992401,186.725815 
	C206.040039,188.679047 206.496094,190.319336 206.033813,191.637589 
	C205.400345,193.443985 204.245880,196.216553 202.998016,196.398071 
	C200.960876,196.694412 198.110901,195.832214 196.580109,194.408844 
	C190.157166,188.436783 184.074036,182.097214 177.910522,175.848770 
	C172.458527,170.321655 167.070526,164.731476 161.643768,159.179398 
	C156.754395,154.177109 151.840164,149.199081 146.956772,144.190979 
	C143.051239,140.185699 139.217957,136.109222 135.275375,132.141068 
	C130.810104,127.646820 126.237259,123.259659 121.751259,118.785744 
	C117.818657,114.863731 113.691574,111.097717 110.113174,106.870987 
	C106.814453,102.974586 108.049866,99.049606 112.511040,96.269180 
	C115.024666,94.702568 117.391388,92.838478 119.595024,90.853836 
	C121.748856,88.914055 123.645569,88.804085 125.678574,90.819420 
	C138.983566,104.008720 152.252823,117.234283 165.597458,130.383347 
	C177.389114,142.002182 189.485550,153.324051 200.938812,165.264877 
	C203.661362,168.103317 204.799133,172.775589 205.831329,176.817459 
	C206.589935,179.787979 205.987411,183.106094 205.992401,186.725815 
M129.229935,98.270393 
	C127.195877,95.924187 125.161827,93.577980 123.886589,92.107048 
	C119.196770,96.501671 115.385162,100.073357 112.400970,102.869705 
	C142.609940,133.140518 172.889572,163.482147 203.140900,193.795410 
	C203.140900,188.594315 202.913742,182.996368 203.219147,177.427612 
	C203.429779,173.586990 202.070953,170.947601 199.387970,168.286575 
	C176.097244,145.186615 152.934479,121.957603 129.229935,98.270393 
z"/>
<path fill="#010102" opacity="1.000000" stroke="none" 
	d="
M223.313507,195.133575 
	C227.023132,190.543198 230.883148,185.898331 235.288406,181.846237 
	C236.098450,181.101120 239.941452,182.130585 240.945465,183.442383 
	C242.914078,186.014465 247.238434,189.063782 243.234726,192.726089 
	C238.761398,196.817947 233.536499,200.088135 228.329529,203.871857 
	C227.852722,203.062866 227.310959,201.974579 227.581497,201.154114 
	C228.823364,197.387711 226.838058,195.978882 223.313507,195.133575 
z"/>
<path fill="#000000" opacity="1.000000" stroke="none" 
	d="
M169.570557,175.401855 
	C170.635864,174.592896 171.515594,174.068817 172.395325,173.544754 
	C172.801544,174.531525 173.716675,175.636337 173.520187,176.483292 
	C172.886887,179.213303 173.884964,180.370270 176.408142,181.277527 
	C177.272995,181.588501 177.452087,183.711197 178.018143,184.973129 
	C178.707779,186.510513 179.292099,188.145050 180.263321,189.491348 
	C181.133423,190.697464 182.466568,191.569550 183.595428,192.589020 
	C182.584702,193.298111 181.250153,194.811630 180.625977,194.560394 
	C178.974030,193.895432 177.561157,192.540909 176.207733,191.293121 
	C175.840698,190.954758 176.065125,190.012924 175.946518,189.361099 
	C174.938736,183.822556 170.953796,180.292252 165.437317,179.990021 
	C164.284058,179.926819 162.610001,180.175415 162.095093,179.537918 
	C160.966293,178.140427 160.426300,176.267349 159.645874,174.588486 
	C161.201340,174.529922 162.779510,174.281113 164.306244,174.463348 
	C166.023361,174.668304 167.694092,175.262085 169.570557,175.401855 
z"/>
<path fill="#000000" opacity="1.000000" stroke="none" 
	d="
M201.733063,160.913788 
	C201.447876,157.565079 200.831314,154.413269 201.503021,151.565323 
	C201.814850,150.243301 204.632004,149.512177 206.313431,148.513184 
	C206.783112,150.290482 207.817673,152.141022 207.598724,153.828979 
	C207.206406,156.853790 206.059875,159.780762 205.004974,163.546967 
	C203.956619,162.759033 202.942749,161.997040 201.733063,160.913788 
z"/>
<path fill="#000000" opacity="1.000000" stroke="none" 
	d="
M206.682037,84.899414 
	C207.010178,85.749100 207.011368,86.500061 207.011597,87.626511 
	C205.681000,89.876167 203.778214,91.585320 203.178101,93.669548 
	C202.540176,95.885063 201.983170,96.899147 199.325363,96.052765 
	C199.884064,91.900635 200.783859,87.806847 201.835846,83.354645 
	C203.443710,83.597717 204.899399,84.199203 206.682037,84.899414 
z"/>
<path fill="#000000" opacity="1.000000" stroke="none" 
	d="
M236.208847,145.744293 
	C235.722046,145.835800 235.484344,145.629532 235.255966,144.908966 
	C234.153000,142.955688 233.068985,141.484131 231.984970,140.012573 
	C231.984970,140.012573 231.995300,140.001770 231.990326,140.008423 
	C233.776886,136.635498 239.102798,136.546738 242.405685,139.857574 
	C240.413681,141.731430 238.421677,143.605286 236.208847,145.744293 
z"/>
<path fill="#000000" opacity="1.000000" stroke="none" 
	d="
M189.677200,191.686340 
	C191.512283,193.603745 193.064453,195.676498 194.607208,197.736649 
	C190.665497,200.545578 189.996170,200.306244 186.485779,195.010254 
	C187.421646,193.990707 188.407974,192.916199 189.677200,191.686340 
z"/>
<path fill="#000000" opacity="1.000000" stroke="none" 
	d="
M233.692963,124.064133 
	C234.288788,124.160347 234.521896,124.365311 234.870163,124.785667 
	C235.171188,126.114006 235.750290,127.421318 235.384033,128.359634 
	C234.917389,129.555145 233.828064,130.674210 232.722580,131.381210 
	C232.195343,131.718414 230.389893,131.220978 230.247910,130.764389 
	C229.908722,129.673477 229.841019,128.185181 230.351547,127.221909 
	C230.996002,126.005997 232.323944,125.152344 233.692963,124.064133 
z"/>
<path fill="#000000" opacity="1.000000" stroke="none" 
	d="
M192.526993,146.227814 
	C194.136414,145.967880 195.613297,146.033463 197.090179,146.099060 
	C196.871323,148.200394 196.652481,150.301727 196.433640,152.403061 
	C195.864502,152.462997 195.295349,152.522919 194.726196,152.582855 
	C193.948944,150.573013 193.171692,148.563187 192.526993,146.227814 
z"/>
<path fill="#000000" opacity="1.000000" stroke="none" 
	d="
M269.361328,169.211304 
	C270.562347,167.898193 271.554626,166.832260 273.007477,165.271500 
	C273.999847,166.570190 274.865814,167.703445 276.161194,169.398712 
	C273.712372,170.322113 271.962738,171.032776 270.157928,171.551346 
	C270.033508,171.587097 269.497253,170.189484 269.361328,169.211304 
z"/>
<path fill="#000000" opacity="1.000000" stroke="none" 
	d="
M151.798065,96.227325 
	C153.307022,97.418724 154.590286,98.871315 155.944489,100.657501 
	C154.438614,101.202347 152.861786,101.413597 151.284943,101.624847 
	C151.380753,99.912735 151.476562,98.200623 151.798065,96.227325 
z"/>
<path fill="#000000" opacity="1.000000" stroke="none" 
	d="
M216.007324,167.006821 
	C213.573853,167.257828 211.133041,167.502014 208.692230,167.746201 
	C208.574310,167.207214 208.456390,166.668243 208.338470,166.129257 
	C209.370529,165.701965 210.430023,165.329712 211.427460,164.832901 
	C212.582184,164.257767 213.682358,163.573074 215.325562,162.641495 
	C215.571777,163.962097 215.787766,165.120514 216.008881,166.646790 
	C216.014023,167.014664 216.000000,167.000000 216.007324,167.006821 
z"/>
<path fill="#000000" opacity="1.000000" stroke="none" 
	d="
M198.994690,107.005768 
	C199.708954,105.753906 200.428528,104.496284 201.148087,103.238663 
	C202.481079,104.223351 203.814072,105.208038 205.147049,106.192734 
	C204.851578,106.717949 204.556107,107.243164 204.260635,107.768387 
	C202.746307,107.559631 201.231979,107.350883 199.353088,107.075714 
	C198.988525,107.009308 199.000000,107.000000 198.994690,107.005768 
z"/>
<path fill="#000000" opacity="1.000000" stroke="none" 
	d="
M256.175110,157.518372 
	C254.475861,157.082108 253.122482,156.727478 251.769119,156.372833 
	C251.726044,155.902191 251.682983,155.431534 251.639923,154.960892 
	C253.297623,154.717270 254.964203,154.262817 256.608704,154.332184 
	C257.281433,154.360550 257.906403,155.521881 258.553101,156.167801 
	C257.875732,156.645187 257.198364,157.122574 256.175110,157.518372 
z"/>
<path fill="#000000" opacity="1.000000" stroke="none" 
	d="
M261.801331,159.776688 
	C262.553284,162.533813 263.005737,165.180038 263.458160,167.826279 
	C262.806061,167.909790 262.153931,167.993317 261.501831,168.076843 
	C261.501831,165.273163 261.501831,162.469482 261.801331,159.776688 
z"/>
<path fill="#000000" opacity="1.000000" stroke="none" 
	d="
M209.371765,121.927643 
	C210.413361,120.055641 211.826721,118.111282 213.879562,115.287148 
	C215.957489,121.330101 212.026947,120.894066 209.371765,121.927643 
z"/>
<path fill="#000000" opacity="1.000000" stroke="none" 
	d="
M165.108963,125.613907 
	C163.694550,125.009483 162.615173,124.405602 161.535797,123.801720 
	C161.626709,123.337891 161.717606,122.874069 161.808502,122.410240 
	C163.305191,122.564445 164.801865,122.718643 166.298553,122.872849 
	C166.013702,123.786713 165.728851,124.700577 165.108963,125.613907 
z"/>
<path fill="#000000" opacity="1.000000" stroke="none" 
	d="
M179.422165,138.091522 
	C180.713440,138.396240 181.665543,138.733627 182.617630,139.071014 
	C182.550705,139.528259 182.483765,139.985504 182.416824,140.442749 
	C181.037064,140.367798 179.657303,140.292847 178.277542,140.217896 
	C178.546021,139.519989 178.814499,138.822098 179.422165,138.091522 
z"/>
<path fill="#000000" opacity="1.000000" stroke="none" 
	d="
M178.672684,128.022430 
	C178.375595,129.035538 177.824951,129.855286 177.274323,130.675049 
	C176.645187,130.026855 176.016068,129.378662 175.386932,128.730469 
	C176.397659,128.430008 177.408401,128.129547 178.672684,128.022430 
z"/>
<path fill="#000000" opacity="1.000000" stroke="none" 
	d="
M162.346771,114.468819 
	C161.332077,113.522987 160.610611,112.460716 159.889160,111.398445 
	C160.684814,111.114182 161.480469,110.829910 162.276123,110.545639 
	C162.397415,111.814552 162.518723,113.083466 162.346771,114.468819 
z"/>
<path fill="#000000" opacity="1.000000" stroke="none" 
	d="
M184.879486,128.275467 
	C185.957581,128.773300 186.905106,129.564209 187.922256,130.678650 
	C186.212051,131.122208 183.217392,132.861099 184.879486,128.275467 
z"/>
<path fill="#000000" opacity="1.000000" stroke="none" 
	d="
M169.721588,114.101624 
	C170.320602,114.461418 170.611343,114.937828 170.962067,115.690346 
	C170.333435,116.442802 169.644867,116.919151 168.956299,117.395508 
	C169.108627,116.336426 169.260971,115.277336 169.721588,114.101624 
z"/>
<path fill="#000000" opacity="1.000000" stroke="none" 
	d="
M278.380188,176.526321 
	C278.112701,175.585312 278.112701,174.685883 278.112701,173.786453 
	C278.630890,173.877609 279.149078,173.968765 279.667297,174.059921 
	C279.327423,174.895920 278.987579,175.731903 278.380188,176.526321 
z"/>
<path fill="#000000" opacity="1.000000" stroke="none" 
	d="
M205.362152,124.994232 
	C204.987564,124.836388 204.987381,124.669388 204.987793,124.251938 
	C206.114151,123.375549 207.239914,122.749619 208.682831,122.061844 
	C207.912201,122.995026 206.824387,123.990051 205.362152,124.994232 
z"/>
<path fill="#000000" opacity="1.000000" stroke="none" 
	d="
M219.007324,108.992294 
	C218.833328,110.008232 218.651978,111.031853 218.470642,112.055473 
	C218.073914,111.957489 217.677185,111.859512 217.280457,111.761536 
	C217.661728,110.908768 218.042999,110.056007 218.719650,109.092957 
	C219.015030,108.982681 219.000000,108.999969 219.007324,108.992294 
z"/>
<path fill="#000000" opacity="1.000000" stroke="none" 
	d="
M144.292847,92.425171 
	C143.816238,92.859070 143.253845,93.050514 142.691437,93.241959 
	C142.665451,92.817551 142.639465,92.393143 142.613464,91.968742 
	C143.144653,92.040062 143.675858,92.111382 144.292847,92.425171 
z"/>
<path fill="#000000" opacity="1.000000" stroke="none" 
	d="
M245.937225,146.040955 
	C245.987488,145.447784 246.208420,145.024429 246.429352,144.601089 
	C246.744385,144.914001 247.059402,145.226913 247.374420,145.539841 
	C246.952255,145.763489 246.530090,145.987137 245.937225,146.040955 
z"/>
<path fill="#96A5F2" opacity="1.000000" stroke="none" 
	d="
M198.936462,69.704193 
	C198.964401,74.508965 198.603119,79.018845 198.910904,83.482582 
	C199.234726,88.178749 198.098206,91.883522 194.236557,94.804482 
	C191.861069,96.601288 189.822769,98.843842 186.358841,102.074791 
	C191.061630,106.272285 195.520340,109.924248 199.535980,114.011505 
	C200.966782,115.467812 201.949600,117.948288 202.053345,120.015633 
	C202.373154,126.389854 202.169983,132.790314 202.169983,139.017395 
	C181.074020,117.850464 160.095108,96.800980 139.354996,75.991089 
	C159.686096,55.717937 180.727600,34.736397 201.729843,13.794015 
	C201.729843,20.534166 201.877792,27.747776 201.597214,34.944679 
	C201.544998,36.283943 199.892914,37.674274 198.771103,38.840958 
	C186.774078,51.317886 174.735123,63.754501 162.561066,76.353920 
	C166.499283,80.141632 171.126984,84.592484 176.737305,89.988396 
	C183.607025,82.719261 190.689621,75.224876 197.897369,67.425919 
	C198.295502,67.877235 198.568481,68.633125 198.936462,69.704193 
z"/>
<path fill="#000000" opacity="1.000000" stroke="none" 
	d="
M198.678650,57.452484 
	C197.459137,56.987549 196.578812,56.651588 196.377792,56.574875 
	C198.092117,52.781097 199.658112,49.240124 201.290146,45.729855 
	C202.413727,43.313187 209.450516,43.222244 211.489822,45.602829 
	C211.909363,46.092583 212.048477,46.814991 212.441010,47.336758 
	C214.214966,49.694805 217.516144,52.070225 217.438126,54.342243 
	C217.352234,56.843903 214.172821,59.237495 212.347229,61.682774 
	C211.972336,62.184929 211.624680,62.707424 211.668427,62.645103 
	C207.219025,60.864151 203.118423,59.222809 198.678650,57.452484 
z"/>
<path fill="#000000" opacity="1.000000" stroke="none" 
	d="
M224.308777,78.061119 
	C221.431519,75.869675 218.884018,73.729836 216.162277,71.308807 
	C217.434570,67.804153 218.838211,64.559975 220.373154,61.379162 
	C220.607727,60.893082 221.730408,60.276840 221.967834,60.434658 
	C225.547775,62.814346 229.372452,64.994736 232.338318,68.010101 
	C233.074966,68.759056 231.410843,72.627472 230.044342,74.461571 
	C228.818039,76.107491 226.483948,76.928055 224.308777,78.061119 
z"/>
<path fill="#000000" opacity="1.000000" stroke="none" 
	d="
M239.289642,93.861511 
	C237.765564,93.191872 236.552780,92.369301 235.165527,91.283600 
	C236.959457,89.719368 238.927856,88.418251 241.690262,86.592293 
	C240.033401,84.952438 237.947174,83.055687 236.082581,80.961586 
	C235.308655,80.092369 234.571564,78.765358 234.658295,77.716003 
	C234.709396,77.097816 236.357330,76.293182 237.376251,76.130386 
	C241.117386,75.532631 249.380295,84.386383 247.528473,87.461739 
	C245.905121,90.157700 242.319702,91.672211 239.289642,93.861511 
z"/>
<path fill="#000000" opacity="1.000000" stroke="none" 
	d="
M185.006668,74.005478 
	C183.756241,73.767181 182.499146,73.523399 181.242050,73.279610 
	C181.604645,72.443115 181.967239,71.606621 182.329849,70.770126 
	C183.207565,71.616539 184.085297,72.462959 184.987701,73.661385 
	C185.012375,74.013390 185.000000,74.000000 185.006668,74.005478 
z"/>
<path fill="#020203" opacity="1.000000" stroke="none" 
	d="
M231.990799,140.385193 
	C233.068985,141.484131 234.153000,142.955688 235.113495,144.720001 
	C233.992188,143.594452 232.994415,142.176147 231.990799,140.385193 
z"/>
<path fill="#96A6F3" opacity="1.000000" stroke="none" 
	d="
M292.469269,170.482697 
	C291.352631,171.502579 290.491669,172.276291 289.130707,173.499329 
	C276.915833,161.160690 264.790161,148.853363 252.597977,136.612350 
	C239.329849,123.291130 226.035767,109.995178 212.665237,96.777000 
	C210.130463,94.271095 208.919312,91.796150 209.279404,88.009064 
	C209.804825,82.483292 209.414429,76.870422 209.414429,71.148392 
	C239.963470,101.776764 270.102234,131.993790 300.934631,162.906235 
	C298.662170,164.935272 295.693542,167.585892 292.469269,170.482697 
z"/>
<path fill="#96A5F1" opacity="1.000000" stroke="none" 
	d="
M219.841583,44.143867 
	C213.736145,39.798130 211.651306,34.306351 212.686035,27.205341 
	C213.251343,23.325968 212.787018,19.296556 212.787018,16.284239 
	C234.452469,38.027821 256.528839,60.183826 278.818146,82.553505 
	C276.173889,84.894035 272.262238,88.356422 267.713165,92.382996 
	C252.322235,76.872200 236.208649,60.633099 219.841583,44.143867 
z"/>
<path fill="#000000" opacity="1.000000" stroke="none" 
	d="
M264.711975,56.225220 
	C264.766632,55.954010 264.921173,55.791180 265.075745,55.628357 
	C265.161072,55.721405 265.246429,55.814445 265.331787,55.907478 
	C265.158478,56.049511 264.985199,56.191555 264.711975,56.225220 
z"/>
<path fill="#96A5F1" opacity="1.000000" stroke="none" 
	d="
M129.481796,98.518692 
	C152.934479,121.957603 176.097244,145.186615 199.387970,168.286575 
	C202.070953,170.947601 203.429779,173.586990 203.219147,177.427612 
	C202.913742,182.996368 203.140900,188.594315 203.140900,193.795410 
	C172.889572,163.482147 142.609940,133.140518 112.400970,102.869705 
	C115.385162,100.073357 119.196770,96.501671 123.886589,92.107048 
	C125.161827,93.577980 127.195877,95.924187 129.481796,98.518692 
z"/>
</svg>