<svg xmlns="http://www.w3.org/2000/svg" xmlns:xlink="http://www.w3.org/1999/xlink" width="500" zoomAndPan="magnify" viewBox="0 0 375 374.999991" height="500" preserveAspectRatio="xMidYMid meet" version="1.0"><defs><g/><clipPath id="5d182d77aa"><path d="M 146.53125 92.527344 L 235.78125 92.527344 L 235.78125 242.527344 L 146.53125 242.527344 Z M 146.53125 92.527344 " clip-rule="nonzero"/></clipPath><clipPath id="9de8cda486"><path d="M 146.53125 173 L 187.789062 173 L 187.789062 242.417969 L 146.53125 242.417969 Z M 146.53125 173 " clip-rule="nonzero"/></clipPath><clipPath id="c6fbead566"><path d="M 194.300781 92.632812 L 235.609375 92.632812 L 235.609375 162 L 194.300781 162 Z M 194.300781 92.632812 " clip-rule="nonzero"/></clipPath></defs><rect x="-37.5" width="450" fill="#ffffff" y="-37.499999" height="449.999989" fill-opacity="1"/><rect x="-37.5" width="450" fill="#eaebff" y="-37.499999" height="449.999989" fill-opacity="1"/><g clip-path="url(#5d182d77aa)"><path fill="#9039d7" d="M 229.363281 190.648438 L 177.207031 138.492188 C 175.199219 136.484375 175.199219 133.230469 177.207031 131.21875 L 187.496094 120.933594 L 187.496094 92.929688 L 148.035156 132.386719 C 147.074219 133.351562 146.53125 134.660156 146.53125 136.023438 C 146.53125 137.386719 147.074219 138.695312 148.035156 139.660156 L 158.402344 150.023438 L 204.933594 196.554688 C 206.941406 198.5625 206.941406 201.820312 204.933594 203.824219 L 194.347656 214.414062 L 194.347656 242.417969 L 222.570312 214.191406 L 234.101562 202.660156 C 235.070312 201.695312 235.609375 200.390625 235.609375 199.023438 C 235.609375 197.660156 235.070312 196.351562 234.101562 195.390625 L 229.363281 190.648438 " fill-opacity="1" fill-rule="nonzero"/></g><g clip-path="url(#9de8cda486)"><path fill="#080708" d="M 187.496094 214.113281 L 146.53125 173.152344 L 146.53125 201.15625 L 187.496094 242.117188 L 187.496094 214.113281 " fill-opacity="1" fill-rule="nonzero"/></g><g clip-path="url(#c6fbead566)"><path fill="#080708" d="M 194.347656 92.628906 L 194.347656 120.636719 L 235.609375 161.898438 L 235.609375 133.890625 L 194.347656 92.628906 " fill-opacity="1" fill-rule="nonzero"/></g><g fill="#000000" fill-opacity="1"><g transform="translate(150.093746, 282.876164)"><g><path d="M 5.0625 0.171875 C 4.269531 0.171875 3.566406 0.0703125 2.953125 -0.125 C 2.335938 -0.320312 1.820312 -0.578125 1.40625 -0.890625 C 1 -1.210938 0.6875 -1.566406 0.46875 -1.953125 L 1.703125 -3.46875 L 1.90625 -3.46875 C 2.25 -2.957031 2.679688 -2.550781 3.203125 -2.25 C 3.734375 -1.945312 4.351562 -1.796875 5.0625 -1.796875 C 5.664062 -1.796875 6.117188 -1.921875 6.421875 -2.171875 C 6.734375 -2.429688 6.890625 -2.785156 6.890625 -3.234375 C 6.890625 -3.503906 6.835938 -3.726562 6.734375 -3.90625 C 6.640625 -4.09375 6.476562 -4.25 6.25 -4.375 C 6.019531 -4.507812 5.710938 -4.625 5.328125 -4.71875 L 3.859375 -5.046875 C 2.828125 -5.285156 2.0625 -5.675781 1.5625 -6.21875 C 1.0625 -6.757812 0.8125 -7.46875 0.8125 -8.34375 C 0.8125 -8.988281 0.972656 -9.554688 1.296875 -10.046875 C 1.617188 -10.535156 2.085938 -10.914062 2.703125 -11.1875 C 3.316406 -11.457031 4.054688 -11.59375 4.921875 -11.59375 C 5.796875 -11.59375 6.546875 -11.472656 7.171875 -11.234375 C 7.804688 -11.003906 8.335938 -10.648438 8.765625 -10.171875 L 7.65625 -8.640625 L 7.453125 -8.640625 C 7.128906 -8.984375 6.757812 -9.238281 6.34375 -9.40625 C 5.925781 -9.570312 5.453125 -9.65625 4.921875 -9.65625 C 4.296875 -9.65625 3.820312 -9.546875 3.5 -9.328125 C 3.175781 -9.109375 3.015625 -8.804688 3.015625 -8.421875 C 3.015625 -8.066406 3.128906 -7.78125 3.359375 -7.5625 C 3.585938 -7.351562 3.976562 -7.1875 4.53125 -7.0625 L 6.03125 -6.75 C 7.144531 -6.519531 7.953125 -6.125 8.453125 -5.5625 C 8.953125 -5 9.203125 -4.269531 9.203125 -3.375 C 9.203125 -2.65625 9.046875 -2.03125 8.734375 -1.5 C 8.429688 -0.976562 7.96875 -0.566406 7.34375 -0.265625 C 6.726562 0.0234375 5.96875 0.171875 5.0625 0.171875 Z M 5.0625 0.171875 "/></g></g></g><g fill="#000000" fill-opacity="1"><g transform="translate(159.90385, 282.876164)"><g/></g></g><g fill="#000000" fill-opacity="1"><g transform="translate(163.676371, 282.876164)"><g><path d="M 3.75 -5.015625 L 3.75 -1.890625 L 9.203125 -1.890625 L 9.203125 0 L 1.484375 0 L 1.484375 -11.421875 L 9.078125 -11.421875 L 9.078125 -9.53125 L 3.75 -9.53125 L 3.75 -6.859375 L 8.40625 -6.859375 L 8.40625 -5.015625 Z M 3.75 -5.015625 "/></g></g></g><g fill="#000000" fill-opacity="1"><g transform="translate(173.494291, 282.876164)"><g/></g></g><g fill="#000000" fill-opacity="1"><g transform="translate(177.266813, 282.876164)"><g><path d="M 3.671875 0 L 1.484375 0 L 1.484375 -11.421875 L 4.078125 -11.421875 L 8.65625 -4.0625 L 8.859375 -4.09375 L 8.859375 -11.421875 L 11.03125 -11.421875 L 11.03125 0 L 8.71875 0 L 3.875 -7.859375 L 3.671875 -7.828125 Z M 3.671875 0 "/></g></g></g><g fill="#000000" fill-opacity="1"><g transform="translate(189.787198, 282.876164)"><g/></g></g><g fill="#000000" fill-opacity="1"><g transform="translate(193.55972, 282.876164)"><g><path d="M 9.15625 -11.421875 L 9.15625 -9.53125 L 5.859375 -9.53125 L 5.859375 0 L 3.609375 0 L 3.609375 -9.53125 L 0.3125 -9.53125 L 0.3125 -11.421875 Z M 9.15625 -11.421875 "/></g></g></g><g fill="#000000" fill-opacity="1"><g transform="translate(203.026157, 282.876164)"><g/></g></g><g fill="#000000" fill-opacity="1"><g transform="translate(206.798679, 282.876164)"><g><path d="M 3.75 0 L 1.484375 0 L 1.484375 -11.421875 L 3.75 -11.421875 Z M 3.75 0 "/></g></g></g><g fill="#000000" fill-opacity="1"><g transform="translate(212.031776, 282.876164)"><g/></g></g><g fill="#000000" fill-opacity="1"><g transform="translate(215.804298, 282.876164)"><g><path d="M 6.234375 0.171875 C 5.179688 0.171875 4.253906 -0.0390625 3.453125 -0.46875 C 2.660156 -0.90625 2.035156 -1.5625 1.578125 -2.4375 C 1.128906 -3.3125 0.90625 -4.40625 0.90625 -5.71875 C 0.90625 -7.019531 1.128906 -8.109375 1.578125 -8.984375 C 2.035156 -9.867188 2.660156 -10.523438 3.453125 -10.953125 C 4.253906 -11.378906 5.179688 -11.59375 6.234375 -11.59375 C 7.273438 -11.59375 8.191406 -11.378906 8.984375 -10.953125 C 9.785156 -10.523438 10.410156 -9.867188 10.859375 -8.984375 C 11.316406 -8.109375 11.546875 -7.019531 11.546875 -5.71875 C 11.546875 -4.40625 11.316406 -3.304688 10.859375 -2.421875 C 10.410156 -1.546875 9.785156 -0.894531 8.984375 -0.46875 C 8.191406 -0.0390625 7.273438 0.171875 6.234375 0.171875 Z M 6.234375 -1.796875 C 7.203125 -1.796875 7.941406 -2.109375 8.453125 -2.734375 C 8.960938 -3.359375 9.21875 -4.351562 9.21875 -5.71875 C 9.21875 -7.082031 8.960938 -8.078125 8.453125 -8.703125 C 7.941406 -9.328125 7.203125 -9.640625 6.234375 -9.640625 C 5.253906 -9.640625 4.507812 -9.328125 4 -8.703125 C 3.488281 -8.078125 3.234375 -7.082031 3.234375 -5.71875 C 3.234375 -4.351562 3.488281 -3.359375 4 -2.734375 C 4.507812 -2.109375 5.253906 -1.796875 6.234375 -1.796875 Z M 6.234375 -1.796875 "/></g></g></g><g fill="#000000" fill-opacity="1"><g transform="translate(228.257803, 282.876164)"><g/></g></g></svg>